<svg xmlns="http://www.w3.org/2000/svg" xmlns:xlink="http://www.w3.org/1999/xlink" viewBox="0 0 120 120" width="120" height="120" preserveAspectRatio="xMidYMid meet" style="width: 100%; height: 100%; transform: translate3d(0px, 0px, 0px); content-visibility: visible;" id="SVG 4"><defs><clipPath id="__lottie_element_71"><rect width="120" height="120" x="0" y="0"></rect></clipPath></defs><g clip-path="url(#__lottie_element_71)"><g transform="matrix(1,0,0,1,0,0)" opacity="1" style="display: block;"><g opacity="1" transform="matrix(1,0,0,1,60,60)"><path fill="#FFE252" fill-opacity="1" d=" M45.310001373291016,-25.89000129699707 C45.310001373291016,-25.89000129699707 45.310001373291016,25.89000129699707 45.310001373291016,25.89000129699707 C45.310001373291016,36.6078987121582 36.6078987121582,45.310001373291016 25.89000129699707,45.310001373291016 C25.89000129699707,45.310001373291016 -25.89000129699707,45.310001373291016 -25.89000129699707,45.310001373291016 C-36.6078987121582,45.310001373291016 -45.310001373291016,36.6078987121582 -45.310001373291016,25.89000129699707 C-45.310001373291016,25.89000129699707 -45.310001373291016,-25.89000129699707 -45.310001373291016,-25.89000129699707 C-45.310001373291016,-36.6078987121582 -36.6078987121582,-45.310001373291016 -25.89000129699707,-45.310001373291016 C-25.89000129699707,-45.310001373291016 25.89000129699707,-45.310001373291016 25.89000129699707,-45.310001373291016 C36.6078987121582,-45.310001373291016 45.310001373291016,-36.6078987121582 45.310001373291016,-25.89000129699707z"></path></g></g><g transform="matrix(1,0,0,1,0,0)" opacity="1" style="display: block;"><g opacity="1" transform="matrix(1,0,0,1,59.440399169921875,60.306297302246094)"><path stroke-linecap="round" stroke-linejoin="round" fill-opacity="0" stroke="#02016F" stroke-opacity="1" stroke-width="3px" d=" M-26.9212646484375,-21.66501808166504 C-26.9212646484375,-21.66501808166504 -26.9212646484375,2.9648585319519043 -26.9212646484375,2.9648585319519043 C-26.9212646484375,2.9648585319519043 -26.9212646484375,21.66501808166504 -26.9212646484375,21.66501808166504 C-26.9212646484375,21.66501808166504 26.9212646484375,21.66501808166504 26.9212646484375,21.66501808166504"></path></g></g><g transform="matrix(1,0,0,1,0,0)" opacity="1" style="display: block;"><g opacity="1" transform="matrix(1,0,0,1,59.361854553222656,55.353084564208984)"><path stroke-linecap="round" stroke-linejoin="round" fill-opacity="0" stroke="#02016F" stroke-opacity="1" stroke-width="3px" d=" M-26.45787811279297,7.5685577392578125 C-26.45787811279297,7.5685577392578125 -20.492828369140625,1.0262451171875 -19.72314453125,0.8338241577148438 C-18.953460693359375,0.6414031982421875 -16.259567260742188,-1.8600690364837646 -12.988410949707031,0.8338241577148438 C-9.717254638671875,3.527716875076294 -7.527412414550781,3.994152069091797 -3.9446334838867188,2.7580337524414062 C-0.36185455322265625,1.5219154357910156 1.8280029296875,4.682243347167969 1.8280029296875,4.682243347167969 C1.8280029296875,4.682243347167969 4.7143096923828125,7.760977745056152 7.0233612060546875,4.682243347167969 C9.332412719726562,1.603508472442627 9.700645446777344,-1.8040504455566406 11.950645446777344,-5.5160675048828125 C14.200645446777344,-9.228084564208984 16.700645446777344,-7.478084564208984 17.991355895996094,-5.5160675048828125 C19.282066345214844,-3.5540504455566406 22.609458923339844,-0.1282806396484375 26.45787811279297,-0.1282806396484375"></path></g></g></g></svg>