<svg xmlns="http://www.w3.org/2000/svg" xmlns:xlink="http://www.w3.org/1999/xlink" viewBox="0 0 120 120" width="120" height="120" preserveAspectRatio="xMidYMid meet" style="width: 100%; height: 100%; transform: translate3d(0px, 0px, 0px); content-visibility: visible;" id="SVG 3"><defs><clipPath id="__lottie_element_58"><rect width="120" height="120" x="0" y="0"></rect></clipPath></defs><g clip-path="url(#__lottie_element_58)"><g transform="matrix(1,0,0,1,0,0)" opacity="1" style="display: block;"><g opacity="1" transform="matrix(1,0,0,1,60,60)"><path fill="#FFBFC4" fill-opacity="1" d=" M45.310001373291016,-25.89000129699707 C45.310001373291016,-25.89000129699707 45.310001373291016,25.89000129699707 45.310001373291016,25.89000129699707 C45.310001373291016,36.6078987121582 36.6078987121582,45.310001373291016 25.89000129699707,45.310001373291016 C25.89000129699707,45.310001373291016 -25.89000129699707,45.310001373291016 -25.89000129699707,45.310001373291016 C-36.6078987121582,45.310001373291016 -45.310001373291016,36.6078987121582 -45.310001373291016,25.89000129699707 C-45.310001373291016,25.89000129699707 -45.310001373291016,-25.89000129699707 -45.310001373291016,-25.89000129699707 C-45.310001373291016,-36.6078987121582 -36.6078987121582,-45.310001373291016 -25.89000129699707,-45.310001373291016 C-25.89000129699707,-45.310001373291016 25.89000129699707,-45.310001373291016 25.89000129699707,-45.310001373291016 C36.6078987121582,-45.310001373291016 45.310001373291016,-36.6078987121582 45.310001373291016,-25.89000129699707z"></path></g></g><g transform="matrix(1,0,0,1,0,0)" opacity="1" style="display: block;"><g opacity="1" transform="matrix(1,0,0,1,32.4900016784668,32.4900016784668)"><path stroke-linecap="round" stroke-linejoin="round" fill-opacity="0" stroke="#02016F" stroke-opacity="1" stroke-width="3px" d=" M46.93000030517578,7.105427357601002e-15 C33.983333587646484,7.105427357601002e-15 21.036666870117188,7.105427357601002e-15 8.09000015258789,7.105427357601002e-15 C3.630000114440918,7.105427357601002e-15 7.105427357601002e-15,3.630000114440918 7.105427357601002e-15,8.09000015258789 C7.105427357601002e-15,21.036666870117188 7.105427357601002e-15,33.983333587646484 7.105427357601002e-15,46.93000030517578 C7.105427357601002e-15,51.38999938964844 3.630000114440918,55.02000045776367 8.09000015258789,55.02000045776367 C21.036666870117188,55.02000045776367 33.983333587646484,55.02000045776367 46.93000030517578,55.02000045776367 C51.38999938964844,55.02000045776367 55.02000045776367,51.38999938964844 55.02000045776367,46.93000030517578 C55.02000045776367,33.983333587646484 55.02000045776367,21.036666870117188 55.02000045776367,8.09000015258789 C55.02000045776367,3.630000114440918 51.38999938964844,0 46.93000030517578,0 C46.93000030517578,0 46.93000030517578,7.105427357601002e-15 46.93000030517578,7.105427357601002e-15 C46.93000030517578,7.105427357601002e-15 46.93000030517578,7.105427357601002e-15 46.93000030517578,7.105427357601002e-15"></path></g></g><g transform="matrix(1,0,0,1,0,0)" opacity="1" style="display: block;"><g opacity="1" transform="matrix(1,0,0,1,60.03532791137695,43.871971130371094)"><path stroke-linecap="round" stroke-linejoin="round" fill-opacity="0" stroke="#02016F" stroke-opacity="1" stroke-width="3px" d=" M-25.784404754638672,0 C-25.784404754638672,0 25.784404754638672,0 25.784404754638672,0"></path></g></g><g transform="matrix(1,0,0,1,0,0)" opacity="1" style="display: block;"><g opacity="1" transform="matrix(1,0,0,1,47.060001373291016,51.89500045776367)"><path fill="#02016F" fill-opacity="1" d=" M8.84000015258789,17.065000534057617 C8.569999694824219,16.795000076293945 8.329999923706055,16.4950008392334 8.100000381469727,16.19499969482422 C9.713333129882812,16.19499969482422 11.326666831970215,16.19499969482422 12.9399995803833,16.19499969482422 C12.9399995803833,15.114999771118164 12.9399995803833,14.03499984741211 12.9399995803833,12.954999923706055 C10.84000015258789,12.954999923706055 8.739999771118164,12.954999923706055 6.639999866485596,12.954999923706055 C6.420000076293945,11.885000228881836 6.420000076293945,10.78499984741211 6.639999866485596,9.71500015258789 C8.739999771118164,9.71500015258789 10.84000015258789,9.71500015258789 12.9399995803833,9.71500015258789 C12.9399995803833,8.635000228881836 12.9399995803833,7.554999828338623 12.9399995803833,6.474999904632568 C11.326666831970215,6.474999904632568 9.713333129882812,6.474999904632568 8.100000381469727,6.474999904632568 C8.329999923706055,6.175000190734863 8.569999694824219,5.885000228881836 8.84000015258789,5.605000019073486 C11.989999771118164,2.4549999237060547 17.1299991607666,2.444999933242798 20.280000686645508,5.605000019073486 C21.043333053588867,4.8416666984558105 21.80666732788086,4.078333377838135 22.56999969482422,3.315000057220459 C18.149999618530273,-1.1050000190734863 10.970000267028809,-1.1050000190734863 6.550000190734863,3.315000057220459 C5.610000133514404,4.255000114440918 4.880000114440918,5.335000038146973 4.340000152587891,6.474999904632568 C2.8933334350585938,6.474999904632568 1.4466667175292969,6.474999904632568 0,6.474999904632568 C0,7.554999828338623 0,8.635000228881836 0,9.71500015258789 C1.1233333349227905,9.71500015258789 2.246666669845581,9.71500015258789 3.369999885559082,9.71500015258789 C3.2200000286102295,10.78499984741211 3.2200000286102295,11.875 3.369999885559082,12.954999923706055 C2.246666669845581,12.954999923706055 1.1233333349227905,12.954999923706055 0,12.954999923706055 C0,14.03499984741211 0,15.114999771118164 0,16.19499969482422 C1.4466667175292969,16.19499969482422 2.8933334350585938,16.19499969482422 4.340000152587891,16.19499969482422 C4.880000114440918,17.334999084472656 5.610000133514404,18.405000686645508 6.550000190734863,19.354999542236328 C8.760000228881836,21.565000534057617 11.65999984741211,22.665000915527344 14.5600004196167,22.665000915527344 C17.459999084472656,22.665000915527344 20.360000610351562,21.565000534057617 22.56999969482422,19.354999542236328 C21.80666732788086,18.59166717529297 21.043333053588867,17.828332901000977 20.280000686645508,17.065000534057617 C17.1299991607666,20.21500015258789 11.989999771118164,20.21500015258789 8.84000015258789,17.065000534057617 C8.84000015258789,17.065000534057617 8.84000015258789,17.065000534057617 8.84000015258789,17.065000534057617 C8.84000015258789,17.065000534057617 8.84000015258789,17.065000534057617 8.84000015258789,17.065000534057617"></path></g></g></g></svg>