<svg xmlns="http://www.w3.org/2000/svg" xmlns:xlink="http://www.w3.org/1999/xlink" viewBox="0 0 460 300" width="460" height="300" preserveAspectRatio="xMidYMid meet" style="width: 100%; height: 100%; transform: translate3d(0px, 0px, 0px); content-visibility: visible;" id="SVG 5"><defs><clipPath id="__lottie_element_84"><rect width="460" height="300" x="0" y="0"></rect></clipPath></defs><g clip-path="url(#__lottie_element_84)"><g transform="matrix(1,0,0,1,214,252)" opacity="1" style="display: block;"><g opacity="1" transform="matrix(1,0,0,1,0,0)"><path fill="#7FDECB" fill-opacity="1" d=" M-166,-48 C-166,-48 166,-48 166,-48 C166,-48 166,32 166,32 C166,40.84000015258789 158.83999633789062,48 150,48 C150,48 -150,48 -150,48 C-158.83999633789062,48 -166,40.84000015258789 -166,32 C-166,32 -166,-48 -166,-48z"></path></g></g><g transform="matrix(1,0,0,1,214,102)" opacity="1" style="display: block;"><g opacity="1" transform="matrix(1,0,0,1,0,0)"><path fill="#4868FD" fill-opacity="1" d=" M-150,-102 C-150,-102 150,-102 150,-102 C158.83999633789062,-102 166,-94.83999633789062 166,-86 C166,-86 166,102 166,102 C166,102 -166,102 -166,102 C-166,102 -166,-86 -166,-86 C-166,-94.83999633789062 -158.83999633789062,-102 -150,-102z"></path></g></g><g transform="matrix(1,0,0,1,122.76403045654297,203.54600524902344)" opacity="1" style="display: block;"><g opacity="1" transform="matrix(1,0,0,1,0,0)"><path fill="#FFA89D" fill-opacity="1" d=" M90.76599884033203,55.54399871826172 C90.76599884033203,55.54399871826172 -67.46399688720703,55.54399871826172 -67.46399688720703,55.54399871826172 C-67.46399688720703,55.54399871826172 -90.60399627685547,-47.47600173950195 -90.60399627685547,-47.47600173950195 C-91.53399658203125,-51.61600112915039 -88.3740005493164,-55.54600143432617 -84.11399841308594,-55.54600143432617 C-84.11399841308594,-55.54600143432617 60.49599838256836,-55.54600143432617 60.49599838256836,-55.54600143432617 C63.60599899291992,-55.54600143432617 66.30599975585938,-53.395999908447266 66.98600006103516,-50.36600112915039 C66.98600006103516,-50.36600112915039 90.76599884033203,55.54399871826172 90.76599884033203,55.54399871826172z"></path></g></g><g transform="matrix(1,0,0,1,180.051025390625,262.1409912109375)" opacity="1" style="display: block;"><g opacity="1" transform="matrix(1,0,0,1,0,0)"><path fill="#FFA89D" fill-opacity="1" d=" M-125.87200164794922,5.732999801635742 C-125.87200164794922,5.732999801635742 125.86799621582031,5.732999801635742 125.86799621582031,5.732999801635742 C125.86799621582031,5.732999801635742 125.86799621582031,-5.736999988555908 125.86799621582031,-5.736999988555908 C125.86799621582031,-5.736999988555908 -125.87200164794922,-5.736999988555908 -125.87200164794922,-5.736999988555908 C-125.87200164794922,-5.736999988555908 -125.87200164794922,5.732999801635742 -125.87200164794922,5.732999801635742z"></path></g></g><g transform="matrix(1,0,0,1,99.37003326416016,262.26300048828125)" opacity="1" style="display: block;"><g opacity="1" transform="matrix(1,0,0,1,0,0)"><path fill="#02016F" fill-opacity="1" d=" M-45.191001892089844,5.732999801635742 C-45.191001892089844,5.732999801635742 45.18899917602539,5.732999801635742 45.18899917602539,5.732999801635742 C45.18899917602539,5.732999801635742 45.18899917602539,-5.736999988555908 45.18899917602539,-5.736999988555908 C45.18899917602539,-5.736999988555908 -45.191001892089844,-5.736999988555908 -45.191001892089844,-5.736999988555908 C-45.191001892089844,-5.736999988555908 -45.191001892089844,5.732999801635742 -45.191001892089844,5.732999801635742z"></path></g></g><g transform="matrix(1,0,0,1,180.0320281982422,256.26898193359375)" opacity="1" style="display: block;"><g opacity="1" transform="matrix(1,0,0,1,0,0)"><path fill="#02016F" fill-opacity="1" d=" M-125.54199981689453,-0.8100000023841858 C-125.54199981689453,-0.8100000023841858 125.55799865722656,-0.5400000214576721 125.55799865722656,-0.5400000214576721 C125.55799865722656,-0.5400000214576721 125.80799865722656,0.3100000023841858 125.80799865722656,0.3100000023841858 C125.80799865722656,0.3100000023841858 -125.81199645996094,0.8100000023841858 -125.81199645996094,0.8100000023841858 C-125.81199645996094,0.8100000023841858 -125.54199981689453,-0.8100000023841858 -125.54199981689453,-0.8100000023841858z"></path></g></g><g transform="matrix(1,0,0,1,181.37002563476562,256.2340087890625)" opacity="1" style="display: block;"><g opacity="1" transform="matrix(1,0,0,1,0,0)"><path fill="#02016F" fill-opacity="1" d=" M67.41999816894531,-0.23499999940395355 C67.41999816894531,-0.23499999940395355 69.51000213623047,-0.17499999701976776 69.51000213623047,-0.17499999701976776 C66.9800033569336,-0.0949999988079071 65.1500015258789,-0.125 67.12000274658203,-0.04500000178813934 C67.41999816894531,-0.23499999940395355 75.26000213623047,-0.054999999701976776 75.55000305175781,-0.24500000476837158 C75.55000305175781,-0.24500000476837158 76.93000030517578,-0.20499999821186066 76.93000030517578,-0.20499999821186066 C76.54000091552734,-0.19499999284744263 76.47000122070312,-0.19499999284744263 76.08000183105469,-0.19499999284744263 C78.7699966430664,-0.10499999672174454 78.08000183105469,-0.32499998807907104 81.52999877929688,-0.29499998688697815 C82.73999786376953,-0.2750000059604645 83.58000183105469,-0.2549999952316284 82.76000213623047,-0.23499999940395355 C82.76000213623047,-0.23499999940395355 85.44000244140625,-0.2750000059604645 85.44000244140625,-0.2750000059604645 C86.2300033569336,-0.26499998569488525 86.04000091552734,-0.23499999940395355 85.26000213623047,-0.24500000476837158 C85.26000213623047,-0.24500000476837158 89.3499984741211,-0.2549999952316284 89.3499984741211,-0.2549999952316284 C89.3499984741211,-0.2549999952316284 89.31999969482422,-0.24500000476837158 89.31999969482422,-0.24500000476837158 C89.93000030517578,-0.26499998569488525 91.23999786376953,-0.3149999976158142 91.87999725341797,-0.33500000834465027 C92.91999816894531,-0.3050000071525574 91.36000061035156,-0.3149999976158142 91.62000274658203,-0.29499998688697815 C91.62000274658203,-0.29499998688697815 93.88999938964844,-0.33500000834465027 93.88999938964844,-0.33500000834465027 C94.81999969482422,-0.2849999964237213 92.94000244140625,-0.24500000476837158 91.37000274658203,-0.2549999952316284 C93.48999786376953,-0.06499999761581421 93.25,-0.29499998688697815 97.81999969482422,-0.1850000023841858 C97.81999969482422,-0.1850000023841858 95.68000030517578,-0.16500000655651093 95.68000030517578,-0.16500000655651093 C97.05999755859375,-0.054999999701976776 98.7300033569336,-0.0949999988079071 101.1500015258789,-0.02500000037252903 C100.58000183105469,-0.06499999761581421 96.30999755859375,-0.19499999284744263 98.7699966430664,-0.23499999940395355 C99.45999908447266,-0.22499999403953552 100.37999725341797,-0.2150000035762787 101.70999908447266,-0.2549999952316284 C101.72000122070312,-0.1850000023841858 103.01000213623047,-0.20499999821186066 104.63999938964844,-0.20499999821186066 C104.63999938964844,-0.20499999821186066 104.52999877929688,-0.11500000208616257 104.52999877929688,-0.11500000208616257 C106.27999877929688,-0.13500000536441803 106.13999938964844,-0.1850000023841858 107.16999816894531,-0.22499999403953552 C109.12999725341797,-0.2150000035762787 109.54000091552734,-0.14499999582767487 110,-0.08500000089406967 C113.12999725341797,-0.06499999761581421 107.83000183105469,-0.19499999284744263 111.54000091552734,-0.20499999821186066 C114.13999938964844,-0.17499999701976776 115.97000122070312,-0.20499999821186066 119.08999633789062,-0.2549999952316284 C120.91000366210938,-0.22499999403953552 118.7699966430664,-0.20499999821186066 119.41999816894531,-0.17499999701976776 C119.41999816894531,-0.17499999701976776 121.04000091552734,-0.24500000476837158 121.04000091552734,-0.24500000476837158 C121.43000030517578,-0.24500000476837158 121.30999755859375,-0.22499999403953552 121.23999786376953,-0.2150000035762787 C122.5999984741211,-0.23499999940395355 121.3499984741211,-0.29499998688697815 123.48999786376953,-0.3149999976158142 C123.62000274658203,-0.33500000834465027 123.88999938964844,-0.3449999988079071 124.08999633789062,-0.33500000834465027 C124.12999725341797,-0.20499999821186066 124.16999816894531,-0.03500000014901161 124.2300033569336,0.1550000011920929 C123.55000305175781,0.14499999582767487 122.69999694824219,0.125 121.83999633789062,0.10499999672174454 C120.88999938964844,0.0949999988079071 119.9000015258789,0.0949999988079071 119.04000091552734,0.13500000536441803 C118.38999938964844,0.10499999672174454 119.36000061035156,0.07500000298023224 119.16000366210938,0.04500000178813934 C115.5199966430664,0.125 116.04000091552734,0.10499999672174454 113.05999755859375,0.20499999821186066 C113.05999755859375,0.20499999821186066 110.5199966430664,0.1550000011920929 110.5199966430664,0.1550000011920929 C112.37999725341797,0.2150000035762787 110,0.29499998688697815 107.91000366210938,0.36500000953674316 C108.58000183105469,0.39500001072883606 109.1500015258789,0.41499999165534973 109.5199966430664,0.42500001192092896 C109.5199966430664,0.42500001192092896 106.18000030517578,0.48500001430511475 106.18000030517578,0.48500001430511475 C105.77999877929688,0.4650000035762787 106.11000061035156,0.4350000023841858 106.66000366210938,0.4050000011920929 C106.43000030517578,0.41499999165534973 106.22000122070312,0.41499999165534973 106.05000305175781,0.42500001192092896 C104.86000061035156,0.39500001072883606 105.47000122070312,0.3449999988079071 106.33000183105469,0.29499998688697815 C106.7300033569336,0.3149999976158142 107.13999938964844,0.32499998807907104 107.52999877929688,0.3449999988079071 C108.3499984741211,0.29499998688697815 109.12999725341797,0.23499999940395355 108.94999694824219,0.1850000023841858 C108.72000122070312,0.1850000023841858 108.30999755859375,0.19499999284744263 107.86000061035156,0.20499999821186066 C108.08000183105469,0.19499999284744263 108.20999908447266,0.17499999701976776 108.11000061035156,0.17499999701976776 C108,0.16500000655651093 107.6500015258789,0.1850000023841858 107.11000061035156,0.20499999821186066 C107.11000061035156,0.20499999821186066 106.3499984741211,0.10499999672174454 106.3499984741211,0.10499999672174454 C106.3499984741211,0.10499999672174454 106.16000366210938,0.14499999582767487 106.16000366210938,0.14499999582767487 C106.16000366210938,0.14499999582767487 101.80000305175781,0.0949999988079071 101.80000305175781,0.0949999988079071 C98.68000030517578,0.20499999821186066 95.95999908447266,0.3449999988079071 91,0.39500001072883606 C92.2300033569336,0.32499998807907104 91.2699966430664,0.2849999964237213 91.33000183105469,0.19499999284744263 C92.69000244140625,0.2849999964237213 95.16999816894531,0.1550000011920929 97.73999786376953,0.16500000655651093 C96.4000015258789,0.1550000011920929 96.69999694824219,0.11500000208616257 97.04000091552734,0.10499999672174454 C97.04000091552734,0.10499999672174454 92.45999908447266,0.19499999284744263 92.45999908447266,0.19499999284744263 C92.55999755859375,0.125 91.4800033569336,0.14499999582767487 90.29000091552734,0.11500000208616257 C91.19000244140625,0.2549999952316284 86.87000274658203,0.2150000035762787 85.01000213623047,0.26499998569488525 C84.88999938964844,0.2150000035762787 85.33999633789062,0.16500000655651093 87.61000061035156,0.17499999701976776 C85.0999984741211,0.07500000298023224 84.37000274658203,0.33500000834465027 81.91000366210938,0.2549999952316284 C82.45999908447266,0.2549999952316284 82.76000213623047,0.26499998569488525 82.9800033569336,0.23499999940395355 C81.69000244140625,0.2849999964237213 78.51000213623047,0.2549999952316284 79.26000213623047,0.2150000035762787 C79.26000213623047,0.2150000035762787 79.80999755859375,0.2150000035762787 79.80999755859375,0.2150000035762787 C76.12999725341797,0.20499999821186066 68.58999633789062,0.23499999940395355 68.04000091552734,0.35499998927116394 C68,0.33500000834465027 68.5199966430664,0.2150000035762787 68.75,0.1850000023841858 C68.75,0.1850000023841858 62.16999816894531,0.5849999785423279 62.16999816894531,0.5849999785423279 C62.75,0.48500001430511475 60.52000045776367,0.2549999952316284 63.58000183105469,0.19499999284744263 C62.70000076293945,0.1850000023841858 61.619998931884766,0.16500000655651093 59.77000045776367,0.20499999821186066 C60.369998931884766,0.2150000035762787 61.2599983215332,0.3449999988079071 60.439998626708984,0.35499998927116394 C58.189998626708984,0.2549999952316284 58.880001068115234,0.3050000071525574 56.11000061035156,0.2150000035762787 C57.0099983215332,0.23499999940395355 56.0099983215332,0.38499999046325684 54.59000015258789,0.38499999046325684 C54.81999969482422,0.36500000953674316 54.47999954223633,0.23499999940395355 54.9900016784668,0.2150000035762787 C54.9900016784668,0.2150000035762787 51.459999084472656,0.375 51.459999084472656,0.375 C52.349998474121094,0.3449999988079071 51.619998931884766,0.24500000476837158 50.83000183105469,0.20499999821186066 C51.20000076293945,0.23499999940395355 47.779998779296875,0.2150000035762787 46.84000015258789,0.22499999403953552 C46.84000015258789,0.22499999403953552 48.33000183105469,0.2549999952316284 48.33000183105469,0.2549999952316284 C44.349998474121094,0.24500000476837158 44.400001525878906,0.4749999940395355 40.439998626708984,0.4749999940395355 C40.91999816894531,0.4449999928474426 41.619998931884766,0.2849999964237213 39.61000061035156,0.26499998569488525 C38.689998626708984,0.3449999988079071 35.529998779296875,0.6549999713897705 32.029998779296875,0.7149999737739563 C32.029998779296875,0.7149999737739563 31.360000610351562,0.675000011920929 31.360000610351562,0.675000011920929 C31.360000610351562,0.675000011920929 28.68000030517578,0.7350000143051147 28.68000030517578,0.7350000143051147 C30.350000381469727,0.6150000095367432 35.040000915527344,0.35499998927116394 37.599998474121094,0.2549999952316284 C36.11000061035156,0.22499999403953552 37.18000030517578,0.20499999821186066 34.95000076293945,0.2150000035762787 C34.15999984741211,0.17499999701976776 36.16999816894531,0.14499999582767487 36.83000183105469,0.14499999582767487 C36.83000183105469,0.14499999582767487 31.6200008392334,0.125 31.6200008392334,0.125 C31.860000610351562,0.2150000035762787 27.649999618530273,0.22499999403953552 27.850000381469727,0.3050000071525574 C27.850000381469727,0.3050000071525574 33.4900016784668,0.19499999284744263 33.4900016784668,0.19499999284744263 C33.720001220703125,0.2849999964237213 30.229999542236328,0.45500001311302185 26.540000915527344,0.45500001311302185 C25.610000610351562,0.41499999165534973 27.239999771118164,0.2849999964237213 27.170000076293945,0.2549999952316284 C26.690000534057617,0.2849999964237213 23.670000076293945,0.32499998807907104 23.329999923706055,0.3050000071525574 C23.329999923706055,0.3050000071525574 24.889999389648438,0.2549999952316284 24.889999389648438,0.2549999952316284 C22.84000015258789,0.22499999403953552 21.549999237060547,0.375 19.079999923706055,0.29499998688697815 C18.229999542236328,0.29499998688697815 16.540000915527344,0.1850000023841858 16.389999389648438,0.23499999940395355 C17.780000686645508,0.33500000834465027 18.049999237060547,0.6549999713897705 17.1299991607666,0.7350000143051147 C16.829999923706055,0.7350000143051147 12.739999771118164,0.625 11.6899995803833,0.5950000286102295 C10.289999961853027,0.5249999761581421 13.789999961853027,0.4050000011920929 12.600000381469727,0.33500000834465027 C12.550000190734863,0.35499998927116394 11.770000457763672,0.39500001072883606 11.449999809265137,0.4050000011920929 C10.5600004196167,0.38499999046325684 11.819999694824219,0.32499998807907104 9.880000114440918,0.33500000834465027 C9.550000190734863,0.4350000023841858 5.929999828338623,0.33500000834465027 8.960000038146973,0.41499999165534973 C7.059999942779541,0.4449999928474426 6.940000057220459,0.4050000011920929 4.710000038146973,0.41499999165534973 C5.420000076293945,0.4749999940395355 2.7100000381469727,0.6150000095367432 0.8100000023841858,0.6449999809265137 C0.9200000166893005,0.625 0.49000000953674316,0.5950000286102295 0.2800000011920929,0.5849999785423279 C-3.609999895095825,0.5649999976158142 -5.710000038146973,0.5649999976158142 -9.329999923706055,0.5550000071525574 C-9.670000076293945,0.5249999761581421 -11.420000076293945,0.5049999952316284 -10.670000076293945,0.4650000035762787 C-11.1899995803833,0.48500001430511475 -11.670000076293945,0.5149999856948853 -12.789999961853027,0.5149999856948853 C-14.960000038146973,0.4449999928474426 -10.300000190734863,0.5049999952316284 -11.949999809265137,0.4050000011920929 C-12.09000015258789,0.4650000035762787 -14.850000381469727,0.48500001430511475 -16.440000534057617,0.5249999761581421 C-15.949999809265137,0.6050000190734863 -12.75,0.5350000262260437 -11.15999984741211,0.4950000047683716 C-11.149999618530273,0.5550000071525574 -11.850000381469727,0.6150000095367432 -13.020000457763672,0.6650000214576721 C-14.180000305175781,0.7149999737739563 -15.829999923706055,0.7649999856948853 -17.729999542236328,0.7950000166893005 C-20.739999771118164,0.824999988079071 -19.030000686645508,0.7250000238418579 -19.559999465942383,0.7450000047683716 C-25.219999313354492,0.7350000143051147 -24.3799991607666,0.9449999928474426 -29.09000015258789,0.875 C-30.950000762939453,0.8050000071525574 -29.170000076293945,0.7350000143051147 -29.579999923706055,0.6850000023841858 C-27.1299991607666,0.6449999809265137 -25.809999465942383,0.7250000238418579 -24.149999618530273,0.7149999737739563 C-24.149999618530273,0.7149999737739563 -26.200000762939453,0.6850000023841858 -26.200000762939453,0.6850000023841858 C-25.420000076293945,0.6549999713897705 -23.780000686645508,0.6349999904632568 -22.8799991607666,0.6549999713897705 C-24.450000762939453,0.5950000286102295 -32.45000076293945,0.6650000214576721 -36.81999969482422,0.6150000095367432 C-37.599998474121094,0.6349999904632568 -38.939998626708984,0.6650000214576721 -38.310001373291016,0.6949999928474426 C-38.310001373291016,0.6949999928474426 -36.93000030517578,0.6850000023841858 -36.93000030517578,0.6850000023841858 C-35.650001525878906,0.7350000143051147 -39.529998779296875,0.7649999856948853 -37.779998779296875,0.7850000262260437 C-39.630001068115234,0.8349999785423279 -41.709999084472656,0.9049999713897705 -44.31999969482422,0.875 C-44.31999969482422,0.875 -44.810001373291016,0.7950000166893005 -44.810001373291016,0.7950000166893005 C-44.7599983215332,0.8149999976158142 -43.11000061035156,0.8349999785423279 -42.369998931884766,0.8149999976158142 C-43.459999084472656,0.8550000190734863 -46.380001068115234,0.7049999833106995 -47.56999969482422,0.8149999976158142 C-47.56999969482422,0.8149999976158142 -45.7400016784668,0.875 -45.7400016784668,0.875 C-47.599998474121094,0.9150000214576721 -49.900001525878906,1.0149999856948853 -52.220001220703125,0.9950000047683716 C-51.15999984741211,1.065000057220459 -51.68000030517578,0.9750000238418579 -50.040000915527344,1.0750000476837158 C-51.470001220703125,0.9549999833106995 -44.119998931884766,1.065000057220459 -46.40999984741211,0.9449999928474426 C-44.720001220703125,1.0549999475479126 -43.4900016784668,0.9850000143051147 -41.279998779296875,1.0750000476837158 C-41.349998474121094,1.0449999570846558 -42.060001373291016,1.024999976158142 -40.119998931884766,1.034999966621399 C-40.02000045776367,1.024999976158142 -39.81999969482422,1.0149999856948853 -39.689998626708984,1.0049999952316284 C-39.63999938964844,1.0149999856948853 -39.61000061035156,1.0149999856948853 -39.560001373291016,1.0149999856948853 C-39.599998474121094,1.0049999952316284 -39.630001068115234,1.0049999952316284 -39.66999816894531,1.0049999952316284 C-39.59000015258789,1.0049999952316284 -39.58000183105469,1.0049999952316284 -39.709999084472656,1.0049999952316284 C-40.16999816894531,0.9950000047683716 -40.54999923706055,0.9850000143051147 -40.70000076293945,0.9649999737739563 C-39.7400016784668,0.9049999713897705 -36.650001525878906,0.8949999809265137 -35.599998474121094,0.8650000095367432 C-34.45000076293945,0.875 -36.08000183105469,0.8949999809265137 -35.45000076293945,0.925000011920929 C-35.45000076293945,0.925000011920929 -33.88999938964844,0.875 -33.88999938964844,0.875 C-33.7400016784668,0.9350000023841858 -30.829999923706055,0.9649999737739563 -33.54999923706055,1.0049999952316284 C-33.54999923706055,1.0049999952316284 -31.100000381469727,1.0049999952316284 -31.100000381469727,1.0049999952316284 C-29.65999984741211,1.034999966621399 -27.68000030517578,1.0449999570846558 -26.459999084472656,1.0149999856948853 C-25.309999465942383,1.024999976158142 -23.549999237060547,0.9449999928474426 -24.549999237060547,0.9950000047683716 C-24.549999237060547,0.9950000047683716 -20.719999313354492,0.9449999928474426 -20.719999313354492,0.9449999928474426 C-20.719999313354492,0.9449999928474426 -20.68000030517578,0.9649999737739563 -20.68000030517578,0.9649999737739563 C-16.899999618530273,0.9649999737739563 -12.899999618530273,0.8450000286102295 -8.569999694824219,0.9449999928474426 C-7.300000190734863,0.9350000023841858 -5.980000019073486,0.9150000214576721 -3.8499999046325684,0.925000011920929 C-3.8499999046325684,0.925000011920929 -3.440000057220459,0.9750000238418579 -3.440000057220459,0.9750000238418579 C-1.7999999523162842,0.9549999833106995 1.4700000286102295,1.0149999856948853 2.180000066757202,0.9649999737739563 C3.940000057220459,1.1050000190734863 10.109999656677246,0.9750000238418579 12.989999771118164,0.9950000047683716 C12.989999771118164,0.9950000047683716 13.09000015258789,0.925000011920929 13.09000015258789,0.925000011920929 C15.069999694824219,0.9049999713897705 16.969999313354492,0.8949999809265137 19.43000030517578,0.875 C19.43000030517578,0.875 19.280000686645508,0.8149999976158142 19.280000686645508,0.8149999976158142 C21.399999618530273,0.7549999952316284 24.719999313354492,0.8450000286102295 28.06999969482422,0.8349999785423279 C27.850000381469727,0.8550000190734863 27,0.8550000190734863 26.399999618530273,0.8349999785423279 C30.399999618530273,0.9649999737739563 34.84000015258789,0.7250000238418579 38.470001220703125,0.8149999976158142 C39.380001068115234,0.7850000262260437 40.029998779296875,0.7950000166893005 40.66999816894531,0.8050000071525574 C40.58000183105469,0.8149999976158142 40.5099983215332,0.8149999976158142 40.439998626708984,0.8149999976158142 C40.439998626708984,0.8149999976158142 40.810001373291016,0.8149999976158142 40.810001373291016,0.8149999976158142 C41.209999084472656,0.824999988079071 41.630001068115234,0.8349999785423279 42.06999969482422,0.8450000286102295 C41.68000030517578,0.8349999785423279 41.31999969482422,0.824999988079071 41.0099983215332,0.8149999976158142 C41.709999084472656,0.8050000071525574 42.7599983215332,0.7950000166893005 43.810001373291016,0.7850000262260437 C43.810001373291016,0.7850000262260437 44.25,0.8450000286102295 44.25,0.8450000286102295 C44.33000183105469,0.8450000286102295 44.400001525878906,0.8450000286102295 44.4900016784668,0.8450000286102295 C45.5099983215332,0.8650000095367432 45.310001373291016,0.8149999976158142 44.7599983215332,0.7649999856948853 C45.279998779296875,0.7450000047683716 45.75,0.7350000143051147 46.130001068115234,0.7250000238418579 C46.959999084472656,0.824999988079071 48.86000061035156,0.6850000023841858 49.97999954223633,0.7950000166893005 C50.68000030517578,0.7350000143051147 55.20000076293945,0.7450000047683716 55.75,0.625 C55.790000915527344,0.6349999904632568 56.09000015258789,0.6449999809265137 55.529998779296875,0.6449999809265137 C56.689998626708984,0.6549999713897705 57.849998474121094,0.6650000214576721 58.880001068115234,0.6349999904632568 C58.880001068115234,0.6349999904632568 59.369998931884766,0.7149999737739563 59.369998931884766,0.7149999737739563 C59.369998931884766,0.7149999737739563 61.900001525878906,0.5950000286102295 61.900001525878906,0.5950000286102295 C63.43000030517578,0.6449999809265137 64.06999969482422,0.675000011920929 62.54999923706055,0.7450000047683716 C66.25,0.6549999713897705 65.47000122070312,0.675000011920929 68.66000366210938,0.5950000286102295 C68.66000366210938,0.5950000286102295 68.5,0.6449999809265137 68.5,0.6449999809265137 C69.62000274658203,0.6449999809265137 71.41000366210938,0.574999988079071 72.08000183105469,0.6150000095367432 C74.58000183105469,0.7049999833106995 84.45999908447266,0.6050000190734863 90.87999725341797,0.6850000023841858 C89.62999725341797,0.5249999761581421 93.86000061035156,0.7450000047683716 94.12000274658203,0.625 C94.48999786376953,0.6650000214576721 95.38999938964844,0.6850000023841858 94.3499984741211,0.7149999737739563 C97.62000274658203,0.675000011920929 99.2699966430664,0.7649999856948853 101.52999877929688,0.6549999713897705 C101.91000366210938,0.6949999928474426 100.83000183105469,0.7149999737739563 101.16000366210938,0.7350000143051147 C101.41999816894531,0.7250000238418579 102.19999694824219,0.7049999833106995 102.54000091552734,0.7250000238418579 C102.87999725341797,0.7450000047683716 102.05999755859375,0.7549999952316284 101.55000305175781,0.7749999761581421 C104.88999938964844,0.7549999952316284 105.2300033569336,0.6449999809265137 105.47000122070312,0.5350000262260437 C107.16999816894531,0.5849999785423279 108.0199966430664,0.574999988079071 109.23999786376953,0.5049999952316284 C109.83000183105469,0.5350000262260437 110.81999969482422,0.574999988079071 108.73999786376953,0.5849999785423279 C109.91000366210938,0.5849999785423279 115.87999725341797,0.625 116,0.5350000262260437 C116.37000274658203,0.5550000071525574 117.63999938964844,0.5450000166893005 117.94999694824219,0.5350000262260437 C120.56999969482422,0.5249999761581421 120.80000305175781,0.5249999761581421 123.37999725341797,0.5249999761581421 C123.37999725341797,0.5249999761581421 122.66999816894531,0.5149999856948853 122.66999816894531,0.5149999856948853 C123.20999908447266,0.45500001311302185 123.69999694824219,0.45500001311302185 124.62999725341797,0.45500001311302185 C124.52999877929688,0.125 124.43000030517578,-0.23499999940395355 124.30999755859375,-0.6349999904632568 C123.83999633789062,-0.6349999904632568 123.30999755859375,-0.6349999904632568 122.69000244140625,-0.6349999904632568 C122.69000244140625,-0.6349999904632568 122.75,-0.6449999809265137 122.75,-0.6449999809265137 C117.98999786376953,-0.7250000238418579 120.69999694824219,-0.6150000095367432 116,-0.7049999833106995 C116,-0.7049999833106995 116.25,-0.6449999809265137 116.25,-0.6449999809265137 C115.80999755859375,-0.5049999952316284 112.08999633789062,-0.7250000238418579 109.36000061035156,-0.675000011920929 C109.36000061035156,-0.675000011920929 110.33999633789062,-0.6349999904632568 110.33999633789062,-0.6349999904632568 C108.8499984741211,-0.5950000286102295 106.18000030517578,-0.8349999785423279 104.68000030517578,-0.8550000190734863 C104.36000061035156,-0.8650000095367432 105.19999694824219,-0.875 105.6500015258789,-0.8849999904632568 C101.7300033569336,-0.9649999737739563 105.13999938964844,-0.7950000166893005 102.2300033569336,-0.7749999761581421 C101.69000244140625,-0.824999988079071 102.91999816894531,-0.8949999809265137 100.94999694824219,-0.9049999713897705 C99.9800033569336,-0.9449999928474426 95.25,-0.7649999856948853 92.56999969482422,-0.8550000190734863 C93.16000366210938,-0.8149999976158142 93.75,-0.7850000262260437 92.4000015258789,-0.7549999952316284 C90.31999969482422,-0.7450000047683716 86.77999877929688,-0.8949999809265137 84.9000015258789,-0.7850000262260437 C84.62999725341797,-0.7950000166893005 84.52999877929688,-0.8050000071525574 84.5199966430664,-0.8149999976158142 C82.93000030517578,-0.7850000262260437 79.36000061035156,-0.7749999761581421 78.4000015258789,-0.7149999737739563 C76.94000244140625,-0.9350000023841858 68.5199966430664,-0.6150000095367432 68.55999755859375,-0.824999988079071 C68.55999755859375,-0.824999988079071 63.66999816894531,-0.8149999976158142 63.66999816894531,-0.8149999976158142 C63.66999816894531,-0.8149999976158142 63.79999923706055,-0.8349999785423279 63.79999923706055,-0.8349999785423279 C60.68000030517578,-0.8550000190734863 59.56999969482422,-0.8050000071525574 58.47999954223633,-0.7549999952316284 C57.75,-0.7749999761581421 58.279998779296875,-0.7950000166893005 58.34000015258789,-0.8050000071525574 C53.779998779296875,-0.8450000286102295 53.31999969482422,-0.8349999785423279 49.5,-0.7450000047683716 C49.5,-0.7450000047683716 49.099998474121094,-0.8050000071525574 49.099998474121094,-0.8050000071525574 C48.060001373291016,-0.7749999761581421 42.5,-0.925000011920929 38.02000045776367,-0.8450000286102295 C38.060001373291016,-0.8550000190734863 38.15999984741211,-0.8650000095367432 38.5099983215332,-0.875 C33.47999954223633,-0.8050000071525574 26.459999084472656,-1.0750000476837158 24.610000610351562,-0.8349999785423279 C24.610000610351562,-0.8349999785423279 21.280000686645508,-0.7749999761581421 21.280000686645508,-0.7749999761581421 C25.59000015258789,-0.7549999952316284 20.639999389648438,-0.675000011920929 22.40999984741211,-0.6349999904632568 C20.719999313354492,-0.6150000095367432 18.040000915527344,-0.7049999833106995 20.1200008392334,-0.7149999737739563 C20.1200008392334,-0.7149999737739563 20.450000762939453,-0.7049999833106995 20.450000762939453,-0.7049999833106995 C21.209999084472656,-0.8349999785423279 15.100000381469727,-0.7549999952316284 15.220000267028809,-0.8450000286102295 C6.760000228881836,-0.875 -1.4900000095367432,-0.9049999713897705 -9.420000076293945,-0.9350000023841858 C-9.420000076293945,-0.9350000023841858 -8.5,-0.8349999785423279 -8.5,-0.8349999785423279 C-8.5,-0.8349999785423279 -11.270000457763672,-0.8450000286102295 -11.270000457763672,-0.8450000286102295 C-11.989999771118164,-0.875 -12.239999771118164,-0.925000011920929 -10.270000457763672,-0.9150000214576721 C-10.789999961853027,-0.9449999928474426 -11.619999885559082,-0.9350000023841858 -12.319999694824219,-0.9150000214576721 C-13.029999732971191,-0.8949999809265137 -13.609999656677246,-0.8650000095367432 -13.640000343322754,-0.8550000190734863 C-17.5,-0.8949999809265137 -12.130000114440918,-0.9649999737739563 -13.3100004196167,-0.9750000238418579 C-13.3100004196167,-0.9750000238418579 -14.920000076293945,-0.9649999737739563 -14.920000076293945,-0.9649999737739563 C-14.920000076293945,-0.9649999737739563 -14.5600004196167,-0.9549999833106995 -14.5600004196167,-0.9549999833106995 C-15.859999656677246,-0.9150000214576721 -15.979999542236328,-0.875 -18.350000381469727,-0.8849999904632568 C-19.850000381469727,-0.9049999713897705 -19.1200008392334,-0.9449999928474426 -19.709999084472656,-0.9449999928474426 C-19.709999084472656,-0.9449999928474426 -19.899999618530273,-0.9549999833106995 -20.610000610351562,-0.9449999928474426 C-20.610000610351562,-0.9449999928474426 -24.100000381469727,-0.9649999737739563 -24.100000381469727,-0.9649999737739563 C-24.100000381469727,-0.9649999737739563 -22.700000762939453,-0.8849999904632568 -22.700000762939453,-0.8849999904632568 C-24.25,-0.8450000286102295 -25.979999542236328,-0.8949999809265137 -24.3700008392334,-0.7950000166893005 C-26.729999542236328,-0.9350000023841858 -37.36000061035156,-0.8650000095367432 -38.810001373291016,-0.9049999713897705 C-40.970001220703125,-0.8550000190734863 -43.11000061035156,-0.8550000190734863 -45.75,-0.8650000095367432 C-45.099998474121094,-0.8450000286102295 -44.70000076293945,-0.7649999856948853 -46.97999954223633,-0.7749999761581421 C-46.150001525878906,-0.9549999833106995 -51.15999984741211,-0.8550000190734863 -53,-0.9850000143051147 C-51.349998474121094,-0.8949999809265137 -59.4900016784668,-0.9750000238418579 -56.900001525878906,-0.8450000286102295 C-58.79999923706055,-0.8650000095367432 -57.02000045776367,-0.9150000214576721 -58.459999084472656,-0.9549999833106995 C-62.9900016784668,-0.8949999809265137 -68.44000244140625,-1.0149999856948853 -74.04000091552734,-0.9950000047683716 C-74.12999725341797,-0.9750000238418579 -73.19000244140625,-0.9350000023841858 -74.38999938964844,-0.9049999713897705 C-74.38999938964844,-0.9049999713897705 -77.3499984741211,-1.024999976158142 -77.3499984741211,-1.024999976158142 C-78.44999694824219,-1.0149999856948853 -78.36000061035156,-0.8949999809265137 -80.37999725341797,-0.9750000238418579 C-80.0999984741211,-0.9549999833106995 -79.66999816894531,-0.925000011920929 -80.41000366210938,-0.9150000214576721 C-91.37999725341797,-1.0449999570846558 -102.83000183105469,-0.8450000286102295 -113.95999908447266,-1.0750000476837158 C-112.45999908447266,-1.024999976158142 -113.45999908447266,-1.024999976158142 -114.61000061035156,-1.024999976158142 C-113.86000061035156,-1.0149999856948853 -114.62999725341797,-0.9649999737739563 -114.4800033569336,-0.9350000023841858 C-114.4800033569336,-0.9350000023841858 -119.13999938964844,-1.024999976158142 -119.13999938964844,-1.024999976158142 C-119.98999786376953,-0.9350000023841858 -124.13999938964844,-1.024999976158142 -124.62999725341797,-0.9449999928474426 C-124.62999725341797,-0.9449999928474426 -123.1500015258789,-0.9549999833106995 -123.1500015258789,-0.9549999833106995 C-125.12000274658203,-0.8550000190734863 -120.41000366210938,-0.7250000238418579 -120.69000244140625,-0.5950000286102295 C-118.48999786376953,-0.7149999737739563 -114.9000015258789,-0.42500001192092896 -111.29000091552734,-0.5849999785423279 C-110.48999786376953,-0.5550000071525574 -111.97000122070312,-0.5450000166893005 -111.54000091552734,-0.5149999856948853 C-110.62999725341797,-0.5649999976158142 -109.5199966430664,-0.574999988079071 -107.4800033569336,-0.5550000071525574 C-107.4800033569336,-0.5550000071525574 -107.70999908447266,-0.5350000262260437 -107.70999908447266,-0.5350000262260437 C-101.97000122070312,-0.4950000047683716 -99.48999786376953,-0.48500001430511475 -93.02999877929688,-0.4449999928474426 C-93.02999877929688,-0.4449999928474426 -93.51000213623047,-0.5049999952316284 -93.51000213623047,-0.5049999952316284 C-92.1500015258789,-0.4749999940395355 -91.83999633789062,-0.4749999940395355 -91.18000030517578,-0.4650000035762787 C-89.58999633789062,-0.5550000071525574 -95.08000183105469,-0.4749999940395355 -93.62999725341797,-0.574999988079071 C-91.79000091552734,-0.4449999928474426 -83.83999633789062,-0.5649999976158142 -82.5999984741211,-0.41499999165534973 C-80.45999908447266,-0.41499999165534973 -83.22000122070312,-0.48500001430511475 -81.08999633789062,-0.48500001430511475 C-81.08999633789062,-0.48500001430511475 -80.5199966430664,-0.4449999928474426 -80.5199966430664,-0.4449999928474426 C-80.5199966430664,-0.4449999928474426 -79.9800033569336,-0.4950000047683716 -79.9800033569336,-0.4950000047683716 C-78.58000183105469,-0.48500001430511475 -77.87999725341797,-0.4350000023841858 -77.83000183105469,-0.4050000011920929 C-78.16999816894531,-0.39500001072883606 -78.79000091552734,-0.39500001072883606 -79.16000366210938,-0.38499999046325684 C-77.33999633789062,-0.3449999988079071 -74.04000091552734,-0.4050000011920929 -73.41000366210938,-0.38499999046325684 C-73.41000366210938,-0.38499999046325684 -75.45999908447266,-0.41499999165534973 -75.45999908447266,-0.41499999165534973 C-69.63999938964844,-0.4449999928474426 -62.52000045776367,-0.38499999046325684 -56.88999938964844,-0.45500001311302185 C-56.88999938964844,-0.45500001311302185 -57.31999969482422,-0.48500001430511475 -57.31999969482422,-0.48500001430511475 C-53.02000045776367,-0.5450000166893005 -53.880001068115234,-0.45500001311302185 -49.15999984741211,-0.4749999940395355 C-49.15999984741211,-0.4749999940395355 -49.33000183105469,-0.4650000035762787 -49.33000183105469,-0.4650000035762787 C-48.380001068115234,-0.4950000047683716 -47.119998931884766,-0.5049999952316284 -45.83000183105469,-0.5049999952316284 C-47.02000045776367,-0.4749999940395355 -43.59000015258789,-0.4350000023841858 -45.150001525878906,-0.39500001072883606 C-40.4900016784668,-0.45500001311302185 -42.849998474121094,-0.4350000023841858 -39.77000045776367,-0.5450000166893005 C-39.77000045776367,-0.5450000166893005 -39.060001373291016,-0.4950000047683716 -39.060001373291016,-0.4950000047683716 C-38.0099983215332,-0.5450000166893005 -37.91999816894531,-0.5649999976158142 -35.560001373291016,-0.574999988079071 C-37.5,-0.5350000262260437 -34.060001373291016,-0.4950000047683716 -36.220001220703125,-0.4449999928474426 C-31.280000686645508,-0.32499998807907104 -28.8799991607666,-0.5450000166893005 -26.610000610351562,-0.38499999046325684 C-24.34000015258789,-0.5249999761581421 -30.889999389648438,-0.4650000035762787 -29.6200008392334,-0.4950000047683716 C-30.68000030517578,-0.5450000166893005 -27.739999771118164,-0.5950000286102295 -26.190000534057617,-0.574999988079071 C-24.610000610351562,-0.574999988079071 -23.5,-0.4050000011920929 -19.530000686645508,-0.39500001072883606 C-19.920000076293945,-0.39500001072883606 -19.950000762939453,-0.39500001072883606 -20.34000015258789,-0.38499999046325684 C-18.860000610351562,-0.35499998927116394 -17.43000030517578,-0.4350000023841858 -15.609999656677246,-0.375 C-14.579999923706055,-0.45500001311302185 -13.239999771118164,-0.36500000953674316 -12.9399995803833,-0.4749999940395355 C-12.9399995803833,-0.4749999940395355 -16.59000015258789,-0.45500001311302185 -16.59000015258789,-0.45500001311302185 C-14.520000457763672,-0.4749999940395355 -12.579999923706055,-0.6050000190734863 -9.180000305175781,-0.5350000262260437 C-9.4399995803833,-0.5149999856948853 -10.449999809265137,-0.48500001430511475 -11.149999618530273,-0.4749999940395355 C-10.119999885559082,-0.4650000035762787 -9.270000457763672,-0.4650000035762787 -8.199999809265137,-0.4650000035762787 C-8.5,-0.35499998927116394 -12.630000114440918,-0.4449999928474426 -14.850000381469727,-0.36500000953674316 C-13.779999732971191,-0.3149999976158142 -10.65999984741211,-0.4350000023841858 -11.770000457763672,-0.32499998807907104 C-10.170000076293945,-0.4650000035762787 -7.849999904632568,-0.29499998688697815 -5.159999847412109,-0.4050000011920929 C-5.159999847412109,-0.4050000011920929 -5.340000152587891,-0.3449999988079071 -5.340000152587891,-0.3449999988079071 C-4.909999847412109,-0.35499998927116394 -4.019999980926514,-0.36500000953674316 -3.25,-0.375 C-3.25,-0.375 -4.670000076293945,-0.29499998688697815 -4.670000076293945,-0.29499998688697815 C-2.490000009536743,-0.36500000953674316 -0.4699999988079071,-0.23499999940395355 1.6200000047683716,-0.26499998569488525 C-2.75,-0.2750000059604645 0.6399999856948853,-0.3449999988079071 -1.2100000381469727,-0.39500001072883606 C4.190000057220459,-0.4749999940395355 1.899999976158142,-0.22499999403953552 7.940000057220459,-0.24500000476837158 C7.119999885559082,-0.24500000476837158 4.869999885559082,-0.29499998688697815 6.150000095367432,-0.3149999976158142 C7.300000190734863,-0.3050000071525574 8.819999694824219,-0.2750000059604645 9.520000457763672,-0.24500000476837158 C13.529999732971191,-0.2549999952316284 8.90999984741211,-0.3149999976158142 10.609999656677246,-0.3449999988079071 C11.979999542236328,-0.26499998569488525 12.579999923706055,-0.375 14.34000015258789,-0.4050000011920929 C14.34000015258789,-0.4050000011920929 14.350000381469727,-0.33500000834465027 14.350000381469727,-0.33500000834465027 C18.90999984741211,-0.2849999964237213 15.5600004196167,-0.4749999940395355 19.670000076293945,-0.41499999165534973 C19.670000076293945,-0.41499999165534973 17.93000030517578,-0.32499998807907104 17.93000030517578,-0.32499998807907104 C17.93000030517578,-0.32499998807907104 20.06999969482422,-0.3449999988079071 20.06999969482422,-0.3449999988079071 C20.06999969482422,-0.3449999988079071 19.6299991607666,-0.2750000059604645 19.6299991607666,-0.2750000059604645 C21.959999084472656,-0.32499998807907104 22.68000030517578,-0.3149999976158142 24.969999313354492,-0.2849999964237213 C24.440000534057617,-0.33500000834465027 25.270000457763672,-0.4050000011920929 27.290000915527344,-0.4050000011920929 C28.670000076293945,-0.36500000953674316 26.520000457763672,-0.3449999988079071 29.3799991607666,-0.35499998927116394 C28.729999542236328,-0.3149999976158142 28.020000457763672,-0.26499998569488525 26.780000686645508,-0.32499998807907104 C26.59000015258789,-0.3050000071525574 26.200000762939453,-0.2750000059604645 26.010000228881836,-0.26499998569488525 C27.489999771118164,-0.2150000035762787 29.739999771118164,-0.24500000476837158 30.780000686645508,-0.24500000476837158 C30.3799991607666,-0.2549999952316284 29.90999984741211,-0.2549999952316284 29.65999984741211,-0.26499998569488525 C29.65999984741211,-0.26499998569488525 33.810001373291016,-0.3449999988079071 33.810001373291016,-0.3449999988079071 C34.459999084472656,-0.32499998807907104 33.939998626708984,-0.3050000071525574 33.43000030517578,-0.2849999964237213 C34.2599983215332,-0.29499998688697815 34.869998931884766,-0.3050000071525574 36.09000015258789,-0.32499998807907104 C35.77000045776367,-0.2750000059604645 35.849998474121094,-0.2150000035762787 34.099998474121094,-0.19499999284744263 C34.099998474121094,-0.19499999284744263 38.04999923706055,-0.24500000476837158 38.04999923706055,-0.24500000476837158 C38.31999969482422,-0.22499999403953552 40.08000183105469,-0.1850000023841858 39.56999969482422,-0.16500000655651093 C41.7599983215332,-0.13500000536441803 44.95000076293945,-0.26499998569488525 47.86000061035156,-0.2150000035762787 C48.0099983215332,-0.22499999403953552 48.310001373291016,-0.23499999940395355 48.93000030517578,-0.24500000476837158 C51.66999816894531,-0.22499999403953552 54.09000015258789,-0.16500000655651093 57.33000183105469,-0.23499999940395355 C57.33000183105469,-0.23499999940395355 59.16999816894531,-0.13500000536441803 59.16999816894531,-0.13500000536441803 C61.70000076293945,-0.1550000011920929 56.68000030517578,-0.2549999952316284 60.900001525878906,-0.2849999964237213 C63.88999938964844,-0.3149999976158142 62.02000045776367,-0.20499999821186066 63.06999969482422,-0.17499999701976776 C64.55999755859375,-0.22499999403953552 67.13999938964844,-0.3149999976158142 69.88999938964844,-0.23499999940395355 C68.97000122070312,-0.23499999940395355 68.2699966430664,-0.23499999940395355 67.41999816894531,-0.23499999940395355 M98.71099853515625,-0.23999999463558197 C98.10099792480469,-0.23000000417232513 96.89099884033203,-0.18000000715255737 96.45099639892578,-0.2199999988079071 C97.14099884033203,-0.30000001192092896 97.6709976196289,-0.25999999046325684 98.71099853515625,-0.23999999463558197 M103.3010025024414,0.24400000274181366 C103.7509994506836,0.2240000069141388 104.45099639892578,0.23399999737739563 105.24099731445312,0.2540000081062317 C104.66100311279297,0.2639999985694885 104.02100372314453,0.2639999985694885 103.3010025024414,0.24400000274181366 M-29.216999053955078,0.9660000205039978 C-29.187000274658203,0.9660000205039978 -29.177000045776367,0.9660000205039978 -29.14699935913086,0.9559999704360962 C-27.797000885009766,0.9860000014305115 -28.277000427246094,0.9760000109672546 -29.216999053955078,0.9660000205039978 M-32.01900100708008,0.9399999976158142 C-32.308998107910156,0.949999988079071 -32.28900146484375,0.9599999785423279 -32.16899871826172,0.9700000286102295 C-31.9689998626709,0.949999988079071 -31.339000701904297,0.949999988079071 -30.618999481201172,0.949999988079071 C-30.819000244140625,0.9399999976158142 -31.18899917602539,0.9300000071525574 -32.01900100708008,0.9399999976158142 M-20.018999099731445,-0.921999990940094 C-20.018999099731445,-0.921999990940094 -19.4689998626709,-0.9020000100135803 -19.4689998626709,-0.9020000100135803 C-20.708999633789062,-0.8920000195503235 -20.358999252319336,-0.9020000100135803 -20.018999099731445,-0.921999990940094"></path></g></g><g transform="matrix(1,0,0,1,121.3520278930664,201.76300048828125)" opacity="1" style="display: block;"><g opacity="1" transform="matrix(1,0,0,1,0,0)"><path fill="#02016F" fill-opacity="1" d=" M81.03800201416016,45.981998443603516 C81.03800201416016,45.981998443603516 -59.93199920654297,45.981998443603516 -59.93199920654297,45.981998443603516 C-59.93199920654297,45.981998443603516 -81.04199981689453,-45.97800064086914 -81.04199981689453,-45.97800064086914 C-81.04199981689453,-45.97800064086914 59.9379997253418,-45.97800064086914 59.9379997253418,-45.97800064086914 C59.9379997253418,-45.97800064086914 81.03800201416016,45.981998443603516 81.03800201416016,45.981998443603516z"></path></g></g><g transform="matrix(1,0,0,1,179.82203674316406,220.75799560546875)" opacity="1" style="display: block;"><g opacity="1" transform="matrix(1,0,0,1,0,0)"><path stroke-linecap="butt" stroke-linejoin="miter" fill-opacity="0" stroke-miterlimit="4" stroke="#FFFFFF" stroke-opacity="1" stroke-width="3px" d=" M-10.633000373840332,12.925999641418457 C-8.371999740600586,10.175999641418457 10.850000381469727,-13.190999984741211 10.850000381469727,-13.190999984741211"></path></g></g><g transform="matrix(1,0,0,1,161.81503295898438,222.8249969482422)" opacity="1" style="display: block;"><g opacity="1" transform="matrix(1,0,0,1,0,0)"><path stroke-linecap="butt" stroke-linejoin="miter" fill-opacity="0" stroke-miterlimit="4" stroke="#FFFFFF" stroke-opacity="1" stroke-width="3px" d=" M19.847000122070312,-24.124000549316406 C19.847000122070312,-24.124000549316406 -19.843000411987305,24.125999450683594 -19.843000411987305,24.125999450683594"></path></g></g><g transform="matrix(1,0,0,1,158.092041015625,207.19400024414062)" opacity="1" style="display: block;"><g opacity="1" transform="matrix(1,0,0,1,0,0)"><path stroke-linecap="butt" stroke-linejoin="miter" fill-opacity="0" stroke-miterlimit="4" stroke="#FFFFFF" stroke-opacity="1" stroke-width="3px" d=" M-26.1200008392334,31.7549991607666 C-26.1200008392334,31.7549991607666 26.1200008392334,-31.7549991607666 26.1200008392334,-31.7549991607666"></path></g></g><g transform="matrix(1,0,0,1,254,178.5)" opacity="1" style="display: block;"><g opacity="1" transform="matrix(1,0,0,1,0,0)"><path fill="#FFE252" fill-opacity="1" d=" M-17.239999771118164,-10.5 C-17.239999771118164,-10.5 -23.5,6.809999942779541 -23.5,6.809999942779541 C-25.09000015258789,10.819999694824219 -22.739999771118164,11.300000190734863 -18.899999618530273,9.5 C-18.899999618530273,9.5 24,-10.5 24,-10.5 C24,-10.5 -17.239999771118164,-10.5 -17.239999771118164,-10.5z"></path></g></g><g transform="matrix(1,0,0,1,337,100)" opacity="1" style="display: block;"><g opacity="1" transform="matrix(1,0,0,1,0,0)"><path fill="#FFE252" fill-opacity="1" d=" M-107,-68 C-107,-68 107,-68 107,-68 C115.83999633789062,-68 123,-60.84000015258789 123,-52 C123,-52 123,52 123,52 C123,60.84000015258789 115.83999633789062,68 107,68 C107,68 -107,68 -107,68 C-115.83999633789062,68 -123,60.84000015258789 -123,52 C-123,52 -123,-52 -123,-52 C-123,-60.84000015258789 -115.83999633789062,-68 -107,-68z"></path></g></g><g transform="matrix(1,0,0,1,420,128)" opacity="1" style="display: block;"><g opacity="1" transform="matrix(1,0,0,1,0,0)"><path fill="#02016F" fill-opacity="1" d=" M6.5,-11.16 C6.5,-11.16 6.5,15.41 6.5,15.41 C6.5,15.41 14,13.56 14,13.56 C14,13.56 10.55,-9.55 10.55,-9.55 C10.55,-9.55 8.13,-9.6 8.13,-9.6 C8.13,-9.6 6.5,-11.16 6.5,-11.16z M5.42,-12.91 C5.42,-12.91 6.04,-12.82 6.04,-12.82 C6.23,-12.79 6.4,-12.72 6.54,-12.61 C6.54,-12.61 6.61,-12.54 6.61,-12.54 C6.61,-12.54 8.57,-10.65 8.57,-10.65 C8.57,-10.65 10.62,-10.62 10.62,-10.62 C10.62,-10.62 10.82,-10.61 10.82,-10.61 C11.17,-10.58 11.49,-10.33 11.58,-9.97 C11.58,-9.97 11.59,-9.89 11.59,-9.89 C11.59,-9.89 15.22,14.37 15.22,14.37 C15.22,14.37 5.42,16.78 5.42,16.78 C5.42,16.78 5.42,-12.91 5.42,-12.91z M1.17,-5.68 C1.17,-5.68 0.16,-1.96 0.16,-1.96 C0.16,-1.96 -0.96,-2.47 -2.29,-2.38 C-4.23,-2.26 -4.26,-1.05 -4.24,-0.74 C-4.13,0.92 0.29,1.29 0.54,5.18 C0.74,8.25 -1.1,10.35 -3.75,10.51 C-6.93,10.71 -8.68,8.86 -8.68,8.86 C-8.68,8.86 -8.01,6.02 -8.01,6.02 C-8.01,6.02 -6.24,7.34 -4.83,7.25 C-3.91,7.19 -3.58,6.45 -3.62,5.92 C-3.76,3.75 -7.36,3.88 -7.58,0.31 C-7.78,-2.69 -5.79,-5.73 -1.39,-6 C0.3,-6.11 1.17,-5.68 1.17,-5.68z M-1.18,-14.96 C-0.81,-14.97 -0.5,-14.89 -0.24,-14.71 C-0.66,-14.5 -1.07,-14.18 -1.46,-13.78 C-2.45,-12.71 -3.22,-11.08 -3.52,-9.49 C-4.47,-9.2 -5.4,-8.92 -6.26,-8.64 C-5.72,-11.14 -3.61,-14.89 -1.18,-14.96z M0.95,-10.86 C-0.09,-10.54 -1.24,-10.19 -2.38,-9.84 C-2.06,-11.06 -1.45,-12.28 -0.7,-13.07 C-0.42,-13.37 -0.03,-13.7 0.43,-13.89 C0.87,-12.99 0.96,-11.72 0.95,-10.86z M3.55,-11.66 C3.09,-11.52 2.56,-11.35 2,-11.18 C1.98,-11.97 1.89,-13.06 1.52,-14.01 C2.71,-13.79 3.3,-12.45 3.55,-11.66z M11.05,-9.82 C11.03,-9.98 10.89,-10.07 10.77,-10.08 C10.65,-10.09 8.34,-10.13 8.34,-10.13 C8.34,-10.13 6.41,-11.98 6.22,-12.17 C6.03,-12.36 5.66,-12.3 5.52,-12.26 C5.51,-12.26 5.15,-12.15 4.55,-11.96 C4.45,-12.29 4.3,-12.69 4.08,-13.09 C3.4,-14.39 2.39,-15.08 1.17,-15.08 C1.17,-15.08 1.17,-15.08 1.17,-15.08 C1.08,-15.08 1,-15.07 0.92,-15.06 C0.88,-15.11 0.84,-15.15 0.81,-15.19 C0.28,-15.75 -0.4,-16.02 -1.22,-16 C-2.79,-15.95 -4.35,-14.83 -5.62,-12.84 C-6.51,-11.43 -7.19,-9.67 -7.38,-8.31 C-9.18,-7.75 -10.45,-7.37 -10.47,-7.36 C-11.38,-7.07 -11.41,-7.05 -11.53,-6.2 C-11.62,-5.56 -14,12.68 -14,12.68 C-14,12.68 5.96,16.09 5.96,16.09 C5.96,16.09 14.61,13.96 14.61,13.96 C14.61,13.96 11.08,-9.66 11.05,-9.82z"></path><g opacity="1" transform="matrix(1,0,0,1,10.3149995803833,1.930999994277954)"></g><g opacity="1" transform="matrix(1,0,0,1,0.30300000309944153,0.04600000008940697)"><g opacity="1" transform="matrix(1,0,0,1,0,0)"></g></g></g></g><g transform="matrix(1,0,0,1,366,128)" opacity="1" style="display: block;"><g opacity="1" transform="matrix(1,0,0,1,0,0)"><path fill="#02016F" fill-opacity="1" d=" M16,0.7999997138977051 C16,0.7999997138977051 16,16 16,16 C16,16 0.7999997138977051,16 0.7999997138977051,16 C0.7999997138977051,16 0.7999997138977051,0.7999997138977051 0.7999997138977051,0.7999997138977051 C0.7999997138977051,0.7999997138977051 16,0.7999997138977051 16,0.7999997138977051z M-0.7999997138977051,0.7999997138977051 C-0.7999997138977051,0.7999997138977051 -0.7999997138977051,16 -0.7999997138977051,16 C-0.7999997138977051,16 -16,16 -16,16 C-16,16 -16,0.7999997138977051 -16,0.7999997138977051 C-16,0.7999997138977051 -0.7999997138977051,0.7999997138977051 -0.7999997138977051,0.7999997138977051z M16,-16 C16,-16 16,-0.7999997138977051 16,-0.7999997138977051 C16,-0.7999997138977051 0.7999997138977051,-0.7999997138977051 0.7999997138977051,-0.7999997138977051 C0.7999997138977051,-0.7999997138977051 0.7999997138977051,-16 0.7999997138977051,-16 C0.7999997138977051,-16 16,-16 16,-16z M-0.7999997138977051,-16 C-0.7999997138977051,-16 -0.7999997138977051,-0.7999997138977051 -0.7999997138977051,-0.7999997138977051 C-0.7999997138977051,-0.7999997138977051 -16,-0.7999997138977051 -16,-0.7999997138977051 C-16,-0.7999997138977051 -16,-16 -16,-16 C-16,-16 -0.7999997138977051,-16 -0.7999997138977051,-16z"></path></g></g><g transform="matrix(1,0,0,1,310,128)" opacity="1" style="display: block;"><g opacity="1" transform="matrix(1,0,0,1,0,0)"><path fill="#02016F" fill-opacity="1" d=" M0,16.003000259399414 C-7.920000076293945,16.003000259399414 -14.609999656677246,10.373000144958496 -15.90999984741211,2.622999906539917 C-15.90999984741211,2.622999906539917 -16,2.072999954223633 -16,2.072999954223633 C-16,2.072999954223633 -7.050000190734863,2.072999954223633 -7.050000190734863,2.072999954223633 C-7.050000190734863,2.072999954223633 -6.940000057220459,2.3929998874664307 -6.940000057220459,2.3929998874664307 C-5.909999847412109,5.322999954223633 -3.119999885559082,7.2829999923706055 0,7.2829999923706055 C3.119999885559082,7.2829999923706055 5.909999847412109,5.322999954223633 6.940000057220459,2.3929998874664307 C6.940000057220459,2.3929998874664307 7.050000190734863,2.072999954223633 7.050000190734863,2.072999954223633 C7.050000190734863,2.072999954223633 16,2.072999954223633 16,2.072999954223633 C16,2.072999954223633 15.90999984741211,2.622999906539917 15.90999984741211,2.622999906539917 C14.609999656677246,10.373000144958496 7.920000076293945,16.003000259399414 0,16.003000259399414 M16,-2.069999933242798 C16,-2.069999933242798 7.050000190734863,-2.069999933242798 7.050000190734863,-2.069999933242798 C7.050000190734863,-2.069999933242798 6.940000057220459,-2.390000104904175 6.940000057220459,-2.390000104904175 C5.909999847412109,-5.320000171661377 3.119999885559082,-7.289999961853027 0,-7.289999961853027 C-3.119999885559082,-7.289999961853027 -5.909999847412109,-5.320000171661377 -6.940000057220459,-2.390000104904175 C-6.940000057220459,-2.390000104904175 -7.050000190734863,-2.069999933242798 -7.050000190734863,-2.069999933242798 C-7.050000190734863,-2.069999933242798 -16,-2.069999933242798 -16,-2.069999933242798 C-16,-2.069999933242798 -15.90999984741211,-2.630000114440918 -15.90999984741211,-2.630000114440918 C-14.609999656677246,-10.380000114440918 -7.920000076293945,-16 0,-16 C7.920000076293945,-16 14.609999656677246,-10.380000114440918 15.90999984741211,-2.630000114440918 C15.90999984741211,-2.630000114440918 16,-2.069999933242798 16,-2.069999933242798z"></path></g></g><g transform="matrix(1,0,0,1,254,128)" opacity="1" style="display: block;"><g opacity="1" transform="matrix(1,0,0,1,0,0)"><path fill="#02016F" fill-opacity="1" d=" M15.59000015258789,-2.9700000286102295 C15.59000015258789,-2.9700000286102295 7.159999847412109,-2.9700000286102295 7.159999847412109,-2.9700000286102295 C7.159999847412109,-2.9700000286102295 13.119999885559082,-8.930000305175781 13.119999885559082,-8.930000305175781 C13.199999809265137,-9 13.239999771118164,-9.109999656677246 13.239999771118164,-9.220000267028809 C13.239999771118164,-9.329999923706055 13.199999809265137,-9.430000305175781 13.119999885559082,-9.510000228881836 C13.119999885559082,-9.510000228881836 9.510000228881836,-13.119999885559082 9.510000228881836,-13.119999885559082 C9.350000381469727,-13.270000457763672 9.079999923706055,-13.270000457763672 8.930000305175781,-13.119999885559082 C8.930000305175781,-13.119999885559082 2.9600000381469727,-7.159999847412109 2.9600000381469727,-7.159999847412109 C2.9600000381469727,-7.159999847412109 2.9600000381469727,-15.59000015258789 2.9600000381469727,-15.59000015258789 C2.9600000381469727,-15.8100004196167 2.7799999713897705,-16 2.549999952316284,-16 C2.549999952316284,-16 -2.549999952316284,-16 -2.549999952316284,-16 C-2.7799999713897705,-16 -2.9600000381469727,-15.8100004196167 -2.9600000381469727,-15.59000015258789 C-2.9600000381469727,-15.59000015258789 -2.9600000381469727,-7.159999847412109 -2.9600000381469727,-7.159999847412109 C-2.9600000381469727,-7.159999847412109 -8.930000305175781,-13.119999885559082 -8.930000305175781,-13.119999885559082 C-9.079999923706055,-13.270000457763672 -9.350000381469727,-13.270000457763672 -9.510000228881836,-13.119999885559082 C-9.510000228881836,-13.119999885559082 -13.119999885559082,-9.510000228881836 -13.119999885559082,-9.510000228881836 C-13.199999809265137,-9.430000305175781 -13.239999771118164,-9.329999923706055 -13.239999771118164,-9.220000267028809 C-13.239999771118164,-9.109999656677246 -13.199999809265137,-9 -13.119999885559082,-8.930000305175781 C-13.119999885559082,-8.930000305175781 -7.159999847412109,-2.9700000286102295 -7.159999847412109,-2.9700000286102295 C-7.159999847412109,-2.9700000286102295 -15.59000015258789,-2.9700000286102295 -15.59000015258789,-2.9700000286102295 C-15.819999694824219,-2.9700000286102295 -16,-2.7799999713897705 -16,-2.549999952316284 C-16,-2.549999952316284 -16,2.549999952316284 -16,2.549999952316284 C-16,2.7799999713897705 -15.819999694824219,2.9600000381469727 -15.59000015258789,2.9600000381469727 C-15.59000015258789,2.9600000381469727 -7.159999847412109,2.9600000381469727 -7.159999847412109,2.9600000381469727 C-7.159999847412109,2.9600000381469727 -13.119999885559082,8.930000305175781 -13.119999885559082,8.930000305175781 C-13.199999809265137,9 -13.239999771118164,9.109999656677246 -13.239999771118164,9.220000267028809 C-13.239999771118164,9.329999923706055 -13.199999809265137,9.430000305175781 -13.119999885559082,9.510000228881836 C-13.119999885559082,9.510000228881836 -9.510000228881836,13.119999885559082 -9.510000228881836,13.119999885559082 C-9.350000381469727,13.279999732971191 -9.09000015258789,13.279999732971191 -8.930000305175781,13.119999885559082 C-8.930000305175781,13.119999885559082 -2.9600000381469727,7.159999847412109 -2.9600000381469727,7.159999847412109 C-2.9600000381469727,7.159999847412109 -2.9600000381469727,15.59000015258789 -2.9600000381469727,15.59000015258789 C-2.9600000381469727,15.8100004196167 -2.7799999713897705,16 -2.549999952316284,16 C-2.549999952316284,16 2.549999952316284,16 2.549999952316284,16 C2.7799999713897705,16 2.9600000381469727,15.8100004196167 2.9600000381469727,15.59000015258789 C2.9600000381469727,15.59000015258789 2.9600000381469727,7.159999847412109 2.9600000381469727,7.159999847412109 C2.9600000381469727,7.159999847412109 8.930000305175781,13.119999885559082 8.930000305175781,13.119999885559082 C9.09000015258789,13.279999732971191 9.350000381469727,13.279999732971191 9.510000228881836,13.119999885559082 C9.510000228881836,13.119999885559082 13.119999885559082,9.510000228881836 13.119999885559082,9.510000228881836 C13.199999809265137,9.430000305175781 13.239999771118164,9.329999923706055 13.239999771118164,9.220000267028809 C13.239999771118164,9.109999656677246 13.199999809265137,9 13.119999885559082,8.930000305175781 C13.119999885559082,8.930000305175781 7.159999847412109,2.9600000381469727 7.159999847412109,2.9600000381469727 C7.159999847412109,2.9600000381469727 15.59000015258789,2.9600000381469727 15.59000015258789,2.9600000381469727 C15.819999694824219,2.9600000381469727 16,2.7799999713897705 16,2.549999952316284 C16,2.549999952316284 16,-2.549999952316284 16,-2.549999952316284 C16,-2.7799999713897705 15.819999694824219,-2.9700000286102295 15.59000015258789,-2.9700000286102295 C15.59000015258789,-2.9700000286102295 15.59000015258789,-2.9700000286102295 15.59000015258789,-2.9700000286102295z M4.125999927520752,1.7960000038146973 C4.125999927520752,3.0759999752044678 3.0759999752044678,4.125999927520752 1.7960000038146973,4.125999927520752 C1.7960000038146973,4.125999927520752 -1.7940000295639038,4.125999927520752 -1.7940000295639038,4.125999927520752 C-3.0739998817443848,4.125999927520752 -4.124000072479248,3.0759999752044678 -4.124000072479248,1.7960000038146973 C-4.124000072479248,1.7960000038146973 -4.124000072479248,-1.7940000295639038 -4.124000072479248,-1.7940000295639038 C-4.124000072479248,-3.0739998817443848 -3.0739998817443848,-4.124000072479248 -1.7940000295639038,-4.124000072479248 C-1.7940000295639038,-4.124000072479248 1.7960000038146973,-4.124000072479248 1.7960000038146973,-4.124000072479248 C3.0759999752044678,-4.124000072479248 4.125999927520752,-3.0739998817443848 4.125999927520752,-1.7940000295639038 C4.125999927520752,-1.7940000295639038 4.125999927520752,1.7960000038146973 4.125999927520752,1.7960000038146973z"></path></g></g><g transform="matrix(1,0,0,1,420.5,72)" opacity="1" style="display: block;"><g opacity="1" transform="matrix(1,0,0,1,0,0)"><path fill="#02016F" fill-opacity="1" d=" M0.38999998569488525,16 C-8.369999885559082,16 -15.5,8.819999694824219 -15.5,0 C-15.5,-8.819999694824219 -8.369999885559082,-16 0.38999998569488525,-16 C4.269999980926514,-16 8,-14.579999923706055 10.90999984741211,-11.989999771118164 C10.970000267028809,-11.930000305175781 11.020000457763672,-11.850000381469727 11.020000457763672,-11.75 C11.020000457763672,-11.65999984741211 10.989999771118164,-11.569999694824219 10.920000076293945,-11.510000228881836 C10.920000076293945,-11.510000228881836 6.409999847412109,-6.960000038146973 6.409999847412109,-6.960000038146973 C6.289999961853027,-6.840000152587891 6.090000152587891,-6.829999923706055 5.960000038146973,-6.940000057220459 C4.360000133514404,-8.270000457763672 2.3299999237060547,-9.010000228881836 0.23999999463558197,-9.010000228881836 C-4.690000057220459,-9.010000228881836 -8.710000038146973,-4.96999979019165 -8.710000038146973,0 C-8.710000038146973,4.96999979019165 -4.690000057220459,9.010000228881836 0.23999999463558197,9.010000228881836 C4.179999828338623,9.010000228881836 7.150000095367432,6.949999809265137 8.260000228881836,3.4800000190734863 C8.260000228881836,3.4800000190734863 0.23999999463558197,3.4800000190734863 0.23999999463558197,3.4800000190734863 C0.05000000074505806,3.4800000190734863 -0.09000000357627869,3.3299999237060547 -0.09000000357627869,3.140000104904175 C-0.09000000357627869,3.140000104904175 -0.09000000357627869,-2.950000047683716 -0.09000000357627869,-2.950000047683716 C-0.09000000357627869,-3.130000114440918 0.05000000074505806,-3.2799999713897705 0.23999999463558197,-3.2799999713897705 C0.23999999463558197,-3.2799999713897705 14.979999542236328,-3.2799999713897705 14.979999542236328,-3.2799999713897705 C15.149999618530273,-3.2799999713897705 15.289999961853027,-3.1600000858306885 15.3100004196167,-2.990000009536743 C16.010000228881836,2.819999933242798 14.779999732971191,7.71999979019165 11.75,11.15999984741211 C9.010000228881836,14.279999732971191 4.96999979019165,16 0.38999998569488525,16"></path></g></g><g transform="matrix(1,0,0,1,366,72)" opacity="1" style="display: block;"><g opacity="1" transform="matrix(1,0,0,1,0,0)"><path fill="#02016F" fill-opacity="1" d=" M1.2920000553131104,6.130000114440918 C1.2920000553131104,6.130000114440918 1.2920000553131104,-13 1.2920000553131104,-13 C1.2920000553131104,-13 17.00200080871582,-13 17.00200080871582,-13 C17.00200080871582,-13 1.2920000553131104,6.130000114440918 1.2920000553131104,6.130000114440918 C1.2920000553131104,6.130000114440918 1.2920000553131104,6.130000114440918 1.2920000553131104,6.130000114440918z M1.2920000553131104,12.996000289916992 C1.2920000553131104,8.62600040435791 4.811999797821045,5.076000213623047 9.142000198364258,5.076000213623047 C13.482000350952148,5.076000213623047 16.992000579833984,8.62600040435791 16.992000579833984,12.996000289916992 C16.992000579833984,12.996000289916992 1.2920000553131104,12.996000289916992 1.2920000553131104,12.996000289916992 C1.2920000553131104,12.996000289916992 1.2920000553131104,12.996000289916992 1.2920000553131104,12.996000289916992z M-1.2999999523162842,-13 C-1.2999999523162842,-8.619999885559082 -4.809999942779541,-5.079999923706055 -9.149999618530273,-5.079999923706055 C-13.479999542236328,-5.079999923706055 -17,-8.619999885559082 -17,-13 C-17,-13 -1.2999999523162842,-13 -1.2999999523162842,-13z M-1.2999999523162842,-6.133999824523926 C-1.2999999523162842,-6.133999824523926 -1.2999999523162842,12.996000289916992 -1.2999999523162842,12.996000289916992 C-1.2999999523162842,12.996000289916992 -17,12.996000289916992 -17,12.996000289916992 C-17,12.996000289916992 -1.2999999523162842,-6.133999824523926 -1.2999999523162842,-6.133999824523926z"></path></g></g><g transform="matrix(1,0,0,1,310,72)" opacity="1" style="display: block;"><g opacity="1" transform="matrix(1,0,0,1,0,0)"><path fill="#02016F" fill-opacity="1" d=" M4.482999801635742,15.998000144958496 C2.443000078201294,15.998000144958496 0.7829999923706055,14.357999801635742 0.7829999923706055,12.338000297546387 C0.7829999923706055,12.338000297546387 0.7829999923706055,9.107999801635742 0.7829999923706055,9.107999801635742 C0.7829999923706055,8.868000030517578 0.9729999899864197,8.678000450134277 1.2230000495910645,8.678000450134277 C1.2230000495910645,8.678000450134277 4.482999801635742,8.678000450134277 4.482999801635742,8.678000450134277 C6.5229997634887695,8.678000450134277 8.182999610900879,10.317999839782715 8.182999610900879,12.338000297546387 C8.182999610900879,14.357999801635742 6.5229997634887695,15.998000144958496 4.482999801635742,15.998000144958496 M12.302000045776367,7.9039998054504395 C12.302000045776367,7.9039998054504395 4.48199987411499,7.9039998054504395 4.48199987411499,7.9039998054504395 C2.441999912261963,7.9039998054504395 0.7820000052452087,6.263999938964844 0.7820000052452087,4.24399995803833 C0.7820000052452087,2.2239999771118164 2.441999912261963,0.5839999914169312 4.48199987411499,0.5839999914169312 C4.48199987411499,0.5839999914169312 12.302000045776367,0.5839999914169312 12.302000045776367,0.5839999914169312 C14.342000007629395,0.5839999914169312 16.00200080871582,2.2239999771118164 16.00200080871582,4.24399995803833 C16.00200080871582,6.263999938964844 14.342000007629395,7.9039998054504395 12.302000045776367,7.9039998054504395 M-12.300000190734863,7.9039998054504395 C-14.34000015258789,7.9039998054504395 -16,6.263999938964844 -16,4.24399995803833 C-16,2.2239999771118164 -14.34000015258789,0.5839999914169312 -12.300000190734863,0.5839999914169312 C-12.300000190734863,0.5839999914169312 -9.029999732971191,0.5839999914169312 -9.029999732971191,0.5839999914169312 C-8.789999961853027,0.5839999914169312 -8.600000381469727,0.7739999890327454 -8.600000381469727,1.0140000581741333 C-8.600000381469727,1.0140000581741333 -8.600000381469727,4.24399995803833 -8.600000381469727,4.24399995803833 C-8.600000381469727,6.263999938964844 -10.260000228881836,7.9039998054504395 -12.300000190734863,7.9039998054504395 M-4.114999771118164,15.633999824523926 C-6.15500020980835,15.633999824523926 -7.815000057220459,13.994000434875488 -7.815000057220459,11.973999977111816 C-7.815000057220459,11.973999977111816 -7.815000057220459,4.24399995803833 -7.815000057220459,4.24399995803833 C-7.815000057220459,2.2239999771118164 -6.15500020980835,0.5839999914169312 -4.114999771118164,0.5839999914169312 C-2.075000047683716,0.5839999914169312 -0.41499999165534973,2.2239999771118164 -0.41499999165534973,4.24399995803833 C-0.41499999165534973,4.24399995803833 -0.41499999165534973,11.973999977111816 -0.41499999165534973,11.973999977111816 C-0.41499999165534973,13.994000434875488 -2.075000047683716,15.633999824523926 -4.114999771118164,15.633999824523926 M-1.2130000591278076,-8.680000305175781 C-1.2130000591278076,-8.680000305175781 -4.482999801635742,-8.680000305175781 -4.482999801635742,-8.680000305175781 C-6.5229997634887695,-8.680000305175781 -8.182999610900879,-10.319999694824219 -8.182999610900879,-12.34000015258789 C-8.182999610900879,-14.359999656677246 -6.5229997634887695,-16 -4.482999801635742,-16 C-2.443000078201294,-16 -0.7829999923706055,-14.359999656677246 -0.7829999923706055,-12.34000015258789 C-0.7829999923706055,-12.34000015258789 -0.7829999923706055,-9.109999656677246 -0.7829999923706055,-9.109999656677246 C-0.7829999923706055,-8.869999885559082 -0.9729999899864197,-8.680000305175781 -1.2130000591278076,-8.680000305175781 M-4.480000019073486,-0.5860000252723694 C-4.480000019073486,-0.5860000252723694 -12.300000190734863,-0.5860000252723694 -12.300000190734863,-0.5860000252723694 C-14.34000015258789,-0.5860000252723694 -16,-2.2260000705718994 -16,-4.245999813079834 C-16,-6.265999794006348 -14.34000015258789,-7.906000137329102 -12.300000190734863,-7.906000137329102 C-12.300000190734863,-7.906000137329102 -4.480000019073486,-7.906000137329102 -4.480000019073486,-7.906000137329102 C-2.440000057220459,-7.906000137329102 -0.7799999713897705,-6.265999794006348 -0.7799999713897705,-4.245999813079834 C-0.7799999713897705,-2.2260000705718994 -2.440000057220459,-0.5860000252723694 -4.480000019073486,-0.5860000252723694 M12.29800033569336,-0.5860000252723694 C12.29800033569336,-0.5860000252723694 9.038000106811523,-0.5860000252723694 9.038000106811523,-0.5860000252723694 C8.79800033569336,-0.5860000252723694 8.597999572753906,-0.7760000228881836 8.597999572753906,-1.0160000324249268 C8.597999572753906,-1.0160000324249268 8.597999572753906,-4.245999813079834 8.597999572753906,-4.245999813079834 C8.597999572753906,-6.265999794006348 10.258000373840332,-7.906000137329102 12.29800033569336,-7.906000137329102 C14.338000297546387,-7.906000137329102 15.998000144958496,-6.265999794006348 15.998000144958496,-4.245999813079834 C15.998000144958496,-2.2260000705718994 14.338000297546387,-0.5860000252723694 12.29800033569336,-0.5860000252723694 M4.114999771118164,-0.5860000252723694 C2.075000047683716,-0.5860000252723694 0.41499999165534973,-2.2260000705718994 0.41499999165534973,-4.245999813079834 C0.41499999165534973,-4.245999813079834 0.41499999165534973,-11.97599983215332 0.41499999165534973,-11.97599983215332 C0.41499999165534973,-13.996000289916992 2.075000047683716,-15.63599967956543 4.114999771118164,-15.63599967956543 C6.15500020980835,-15.63599967956543 7.815000057220459,-13.996000289916992 7.815000057220459,-11.97599983215332 C7.815000057220459,-11.97599983215332 7.815000057220459,-4.245999813079834 7.815000057220459,-4.245999813079834 C7.815000057220459,-2.2260000705718994 6.15500020980835,-0.5860000252723694 4.114999771118164,-0.5860000252723694"></path></g></g><g transform="matrix(1,0,0,1,253.5,72)" opacity="1" style="display: block;"><g opacity="1" transform="matrix(1,0,0,1,0,0)"><path fill="#02016F" fill-opacity="1" d=" M-8.220000267028809,-0.9599999785423279 C-8.279999732971191,-0.9599999785423279 -8.34000015258789,-0.9599999785423279 -8.399999618530273,-0.9700000286102295 C-9.029999732971191,-1.0399999618530273 -9.529999732971191,-1.4900000095367432 -9.670000076293945,-2.0999999046325684 C-9.670000076293945,-2.0999999046325684 -12.460000038146973,-14.220000267028809 -12.460000038146973,-14.220000267028809 C-12.5600004196167,-14.649999618530273 -12.460000038146973,-15.100000381469727 -12.180000305175781,-15.449999809265137 C-11.899999618530273,-15.800000190734863 -11.479999542236328,-16 -11.029999732971191,-16 C-11.029999732971191,-16 -2.25,-16 -2.25,-16 C-1.7100000381469727,-16 -1.2200000286102295,-15.729999542236328 -0.9399999976158142,-15.279999732971191 C-0.6600000262260437,-14.829999923706055 -0.6299999952316284,-14.270000457763672 -0.8700000047683716,-13.800000190734863 C-0.8700000047683716,-13.800000190734863 -6.900000095367432,-1.7699999809265137 -6.900000095367432,-1.7699999809265137 C-7.150000095367432,-1.2699999809265137 -7.659999847412109,-0.9599999785423279 -8.220000267028809,-0.9599999785423279 M-1.69,16 C-1.69,16 -8.24,16 -8.24,16 C-8.81,16 -9.34,15.71 -9.65,15.23 C-9.95,14.75 -10,14.16 -9.75,13.65 C-9.75,13.65 3.8,-15.3 3.8,-15.3 C3.88,-15.48 4.07,-15.6 4.28,-15.6 C4.28,-15.6 10.83,-15.6 10.83,-15.6 C11.4,-15.6 11.93,-15.31 12.23,-14.84 C12.54,-14.36 12.58,-13.77 12.34,-13.25 C12.34,-13.25 -1.21,15.69 -1.21,15.69 C-1.3,15.88 -1.48,16 -1.69,16 C-1.69,16 -1.69,16 -1.69,16z M4.62,-14.55 C4.62,-14.55 -8.79,14.09 -8.79,14.09 C-8.88,14.28 -8.87,14.49 -8.75,14.67 C-8.64,14.85 -8.45,14.95 -8.23,14.95 C-8.23,14.95 -2.02,14.95 -2.02,14.95 C-2.02,14.95 11.39,-13.69 11.39,-13.69 C11.48,-13.88 11.47,-14.09 11.35,-14.27 C11.23,-14.45 11.05,-14.55 10.83,-14.55 C10.83,-14.55 4.62,-14.55 4.62,-14.55z"></path><g opacity="1" transform="matrix(1,0,0,1,1.2960000038146973,0.20200000703334808)"></g></g></g></g></svg>