<svg xmlns:xlink="http://www.w3.org/1999/xlink" xmlns="http://www.w3.org/2000/svg" width="48" height="48" viewBox="0 0 48 48">
  <g fill="none" fill-rule="evenodd">
    <rect width="48" height="48"/>
    <g fill="#4761FF" transform="translate(3.428 10.286)">
      <path d="M16.1775038,1.02006024 L26.4080172,11.250765 C27.7687562,12.6108453 27.7687562,14.817213 26.4080172,16.1772933 L16.1775038,26.4079981 C14.8174489,27.7687625 12.6118066,27.7687625 11.2517518,26.4079981 L1.02055425,16.1772933 C-0.340184751,14.817213 -0.340184751,12.6108453 1.02055425,11.250765 L11.2517518,1.02006024 C12.6118066,-0.340020079 14.8174489,-0.340020079 16.1775038,1.02006024"/>
      <path d="M29.8917895,1.02006024 L40.1223029,11.250765 C41.4830419,12.6108453 41.4830419,14.817213 40.1223029,16.1772933 L29.8917895,26.4079981 C28.5317346,27.7687625 26.3260923,27.7687625 24.9660375,26.4079981 L14.73484,16.1772933 C13.374101,14.817213 13.374101,12.6108453 14.73484,11.250765 L24.9660375,1.02006024 C26.3260923,-0.340020079 28.5317346,-0.340020079 29.8917895,1.02006024"/>
    </g>
  </g>
</svg>