<svg xmlns="http://www.w3.org/2000/svg" xmlns:xlink="http://www.w3.org/1999/xlink" viewBox="0 0 120 120" width="120" height="120" preserveAspectRatio="xMidYMid meet" style="width: 100%; height: 100%; transform: translate3d(0px, 0px, 0px); content-visibility: visible;" id="SVG 1"><defs><clipPath id="__lottie_element_7"><rect width="120" height="120" x="0" y="0"></rect></clipPath></defs><g clip-path="url(#__lottie_element_7)"><g transform="matrix(1,0,0,1,0,0)" opacity="1" style="display: block;"><g opacity="1" transform="matrix(1,0,0,1,60,60)"><path fill="#9AA6FF" fill-opacity="1" d=" M45.310001373291016,-25.89000129699707 C45.310001373291016,-25.89000129699707 45.310001373291016,25.89000129699707 45.310001373291016,25.89000129699707 C45.310001373291016,36.6078987121582 36.6078987121582,45.310001373291016 25.89000129699707,45.310001373291016 C25.89000129699707,45.310001373291016 -25.89000129699707,45.310001373291016 -25.89000129699707,45.310001373291016 C-36.6078987121582,45.310001373291016 -45.310001373291016,36.6078987121582 -45.310001373291016,25.89000129699707 C-45.310001373291016,25.89000129699707 -45.310001373291016,-25.89000129699707 -45.310001373291016,-25.89000129699707 C-45.310001373291016,-36.6078987121582 -36.6078987121582,-45.310001373291016 -25.89000129699707,-45.310001373291016 C-25.89000129699707,-45.310001373291016 25.89000129699707,-45.310001373291016 25.89000129699707,-45.310001373291016 C36.6078987121582,-45.310001373291016 45.310001373291016,-36.6078987121582 45.310001373291016,-25.89000129699707z"></path></g></g><g transform="matrix(1,0,0,1,0,0)" opacity="1" style="display: block;"><g opacity="1" transform="matrix(1,0,0,1,59.99999237060547,59.99000549316406)"><path stroke-linecap="round" stroke-linejoin="round" fill-opacity="0" stroke="#02016F" stroke-opacity="1" stroke-width="3px" d=" M7.610000133514404,-2.4719998836517334 C7.86299991607666,-1.694000005722046 8,-0.8629999756813049 8,0 C8,4.415200233459473 4.415200233459473,8 0,8 C-4.415200233459473,8 -8,4.415200233459473 -8,0 C-8,-4.415200233459473 -4.415200233459473,-8 0,-8 C0,-8 0,-8 0,-8 C3.552999973297119,-8 6.566999912261963,-5.678999900817871 7.610000133514404,-2.4719998836517334"></path></g></g><g transform="matrix(1,0,0,1,0,0)" opacity="1" style="display: block;"><g opacity="1" transform="matrix(1,0,0,1,59.99999237060547,59.99000549316406)"><path stroke-linecap="round" stroke-linejoin="round" fill-opacity="0" stroke="#02016F" stroke-opacity="1" stroke-width="3px" d=" M16.2810001373291,-5.289999961853027 C16.822999954223633,-3.624000072479248 17.114999771118164,-1.8459999561309814 17.114999771118164,0 C17.115467071533203,9.446025848388672 9.446025848388672,17.115467071533203 0,17.115467071533203 C-9.446025848388672,17.115467071533203 -17.115467071533203,9.446025848388672 -17.115467071533203,0 C-17.115467071533203,-9.446025848388672 -9.446025848388672,-17.115467071533203 0,-17.115467071533203 C0,-17.115467071533203 0,-17.114999771118164 0,-17.114999771118164 C7.599999904632568,-17.114999771118164 14.050999641418457,-12.149999618530273 16.2810001373291,-5.289999961853027"></path></g></g><g transform="matrix(1,0,0,1,0,0)" opacity="1" style="display: block;"><g opacity="1" transform="matrix(1,0,0,1,59.99999237060547,59.99000549316406)"><path stroke-linecap="round" stroke-linejoin="round" fill-opacity="0" stroke="#02016F" stroke-opacity="1" stroke-width="3px" d=" M25.066999435424805,-8.144000053405762 C25.900999069213867,-5.578999996185303 26.351999282836914,-2.8420000076293945 26.351999282836914,0 C26.351673126220703,14.543488502502441 14.543488502502441,26.351673126220703 0,26.351673126220703 C-14.543488502502441,26.351673126220703 -26.351673126220703,14.543488502502441 -26.351673126220703,0 C-26.351673126220703,-14.543488502502441 -14.543488502502441,-26.351673126220703 0,-26.351673126220703 C0,-26.351673126220703 0,-26.351999282836914 0,-26.351999282836914 C11.70199966430664,-26.351999282836914 21.632999420166016,-18.707000732421875 25.066999435424805,-8.144000053405762"></path></g></g></g></svg>