<svg xmlns="http://www.w3.org/2000/svg" xmlns:xlink="http://www.w3.org/1999/xlink" viewBox="0 0 120 120" width="120" height="120" preserveAspectRatio="xMidYMid meet" style="width: 100%; height: 100%; transform: translate3d(0px, 0px, 0px); content-visibility: visible;" id="SVG 2"><defs><clipPath id="__lottie_element_20"><rect width="120" height="120" x="0" y="0"></rect></clipPath><clipPath id="__lottie_element_25"><path d="M0,0 L20000,0 L20000,20000 L0,20000z"></path></clipPath><clipPath id="__lottie_element_35"><path d="M0,0 L20000,0 L20000,20000 L0,20000z"></path></clipPath><g id="__lottie_element_38"><g clip-path="url(#__lottie_element_39)" transform="matrix(1,0,0,1,0,0)" opacity="1" style="display: block;"><g transform="matrix(1,0,0,1,9974.1201171875,9974.1201171875)" opacity="1" style="display: block;"><g opacity="1" transform="matrix(1,0,0,1,0,0)"><path fill="rgb(255,255,255)" fill-opacity="1" d=" M90.56,19.41 C90.56,19.41 90.56,71.15 90.56,71.15 C90.56,81.86 81.86,90.56 71.15,90.56 C71.15,90.56 19.41,90.56 19.41,90.56 C8.7,90.56 0,81.86 0,71.15 C0,71.15 0,19.41 0,19.41 C0,8.7 8.7,0 19.41,0 C19.41,0 71.15,0 71.15,0 C81.86,0 90.56,8.7 90.56,19.41z"></path><g opacity="1" transform="matrix(1,0,0,1,45.279998779296875,45.279998779296875)"></g></g></g></g></g><clipPath id="__lottie_element_39"><path d="M0,0 L20000,0 L20000,20000 L0,20000z"></path></clipPath><mask id="__lottie_element_38_1" mask-type="alpha"><use xlink:href="#__lottie_element_38"></use></mask><clipPath id="__lottie_element_43"><path d="M0,0 L20000,0 L20000,20000 L0,20000z"></path></clipPath><g id="__lottie_element_38"><g clip-path="url(#__lottie_element_39)" transform="matrix(1,0,0,1,0,0)" opacity="1" style="display: block;"><g transform="matrix(1,0,0,1,9974.1201171875,9974.1201171875)" opacity="1" style="display: block;"><g opacity="1" transform="matrix(1,0,0,1,0,0)"><path fill="rgb(255,255,255)" fill-opacity="1" d=" M90.56,19.41 C90.56,19.41 90.56,71.15 90.56,71.15 C90.56,81.86 81.86,90.56 71.15,90.56 C71.15,90.56 19.41,90.56 19.41,90.56 C8.7,90.56 0,81.86 0,71.15 C0,71.15 0,19.41 0,19.41 C0,8.7 8.7,0 19.41,0 C19.41,0 71.15,0 71.15,0 C81.86,0 90.56,8.7 90.56,19.41z"></path><g opacity="1" transform="matrix(1,0,0,1,45.279998779296875,45.279998779296875)"></g></g></g></g></g></defs><g clip-path="url(#__lottie_element_20)"><g transform="matrix(1,0,0,1,0,0)" opacity="1" style="display: block;"><g opacity="1" transform="matrix(1,0,0,1,60,60)"><path fill="#7FDECB" fill-opacity="1" d=" M45.279998779296875,-25.869998931884766 C45.279998779296875,-25.869998931884766 45.279998779296875,25.869998931884766 45.279998779296875,25.869998931884766 C45.279998779296875,36.58237838745117 36.58237838745117,45.279998779296875 25.869998931884766,45.279998779296875 C25.869998931884766,45.279998779296875 -25.869998931884766,45.279998779296875 -25.869998931884766,45.279998779296875 C-36.58237838745117,45.279998779296875 -45.279998779296875,36.58237838745117 -45.279998779296875,25.869998931884766 C-45.279998779296875,25.869998931884766 -45.279998779296875,-25.869998931884766 -45.279998779296875,-25.869998931884766 C-45.279998779296875,-36.58237838745117 -36.58237838745117,-45.279998779296875 -25.869998931884766,-45.279998779296875 C-25.869998931884766,-45.279998779296875 25.869998931884766,-45.279998779296875 25.869998931884766,-45.279998779296875 C36.58237838745117,-45.279998779296875 45.279998779296875,-36.58237838745117 45.279998779296875,-25.869998931884766z"></path></g></g><g clip-path="url(#__lottie_element_25)" transform="matrix(1,0,0,1,-9959.400390625,-9958.73046875)" opacity="1" style="display: block;"><g mask="url(#__lottie_element_38_1)" style="display: block;"><g clip-path="url(#__lottie_element_35)" transform="matrix(1,0,0,1,0,0)" opacity="1"><g clip-path="url(#__lottie_element_43)" transform="matrix(1,0,0,1,0,0)" opacity="1" style="display: block;"><g transform="matrix(1,0,0,1,10000,10000)" opacity="1" style="display: block;"><g opacity="1" transform="matrix(1,0,0,1,0,0)"><path fill="#02016F" fill-opacity="1" d=" M4.85,0 C7.53,0 9.7,2.17 9.7,4.85 C9.7,7.53 7.53,9.7 4.85,9.7 C2.17,9.7 0,7.53 0,4.85 C0,2.17 2.17,0 4.85,0z"></path><g opacity="1" transform="matrix(1,0,0,1,4.849999904632568,4.849999904632568)"></g></g></g></g></g></g></g><g transform="matrix(1,0,0,1,0,0)" opacity="1" style="display: block;"><g opacity="1" transform="matrix(1,0,0,1,65.08712005615234,60)"><path stroke-linecap="round" stroke-linejoin="round" fill-opacity="0" stroke="#02016F" stroke-opacity="1" stroke-width="4px" d=" M-3.1275768280029297,-43.39091491699219 C-3.1275768280029297,-43.39091491699219 0.9132556915283203,-20.80128288269043 0.9132556915283203,-20.80128288269043 C0.9132556915283203,-20.80128288269043 8.032838821411133,-0.47062480449676514 8.032838821411133,-0.47062480449676514 C8.032838821411133,-0.47062480449676514 12.843353271484375,7.059252738952637 3.607149124145508,8.000487327575684 C-5.629055023193359,8.94172191619873 -4.089681625366211,8.94172191619873 -4.089681625366211,8.94172191619873 C-4.089681625366211,8.94172191619873 -9.285043716430664,43.39091110229492 -9.285043716430664,43.39091110229492"></path></g></g><g transform="matrix(1,0,0,1,0,0)" opacity="1" style="display: block;"><g opacity="1" transform="matrix(1,0,0,1,48.29764938354492,81.12171936035156)"><path stroke-linecap="round" stroke-linejoin="round" fill-opacity="0" stroke="#02016F" stroke-opacity="1" stroke-width="4px" d=" M9.62104606628418,6.622226715087891 C9.62104606628418,6.622226715087891 -5.002943992614746,7.969170570373535 -9.62104606628418,-6.654819488525391"></path></g></g></g></svg>